<svg class="animated" id="freepik_stories-child-adoption" xmlns="http://www.w3.org/2000/svg" viewBox="0 0 500 500" version="1.1" xmlns:xlink="http://www.w3.org/1999/xlink" xmlns:svgjs="http://svgjs.com/svgjs"><style>svg#freepik_stories-child-adoption:not(.animated) .animable {opacity: 0;}svg#freepik_stories-child-adoption.animated #freepik--background-complete--inject-71 {animation: 3s Infinite  linear wind;animation-delay: NaNs;}svg#freepik_stories-child-adoption.animated #freepik--Garlands--inject-71 {animation: 1.5s Infinite  linear heartbeat;animation-delay: 0s;}svg#freepik_stories-child-adoption.animated #freepik--Banner--inject-71 {animation: 1.5s Infinite  linear floating;animation-delay: 0s;}svg#freepik_stories-child-adoption.animated #freepik--character-5--inject-71 {animation: 1.5s Infinite  linear floating;animation-delay: 0s;}svg#freepik_stories-child-adoption.animated #freepik--character-4--inject-71 {animation: 1.5s Infinite  linear floating;animation-delay: 0s;}svg#freepik_stories-child-adoption.animated #freepik--character-3--inject-71 {animation: 1.5s Infinite  linear floating;animation-delay: 0s;}svg#freepik_stories-child-adoption.animated #freepik--character-2--inject-71 {animation: 1.5s Infinite  linear floating;animation-delay: 0s;}svg#freepik_stories-child-adoption.animated #freepik--character-1--inject-71 {animation: 1.5s Infinite  linear floating;animation-delay: 0s;}            @keyframes wind {                0% {                    transform: rotate( 0deg );                }                25% {                    transform: rotate( 1deg );                }                75% {                    transform: rotate( -1deg );                }            }                    @keyframes heartbeat {                0% {                    transform: scale(1);                }                10% {                    transform: scale(1.1);                }                30% {                    transform: scale(1);                }                40% {                    transform: scale(1);                }                50% {                    transform: scale(1.1);                }                60% {                    transform: scale(1);                }                100% {                    transform: scale(1);                }            }                    @keyframes floating {                0% {                    opacity: 1;                    transform: translateY(0px);                }                50% {                    transform: translateY(-10px);                }                100% {                    opacity: 1;                    transform: translateY(0px);                }            }        </style><g id="freepik--background-complete--inject-71" class="animable animator-active" style="transform-origin: 250px 228.23px;"><rect y="382.4" width="500" height="0.25" style="fill: rgb(235, 235, 235); transform-origin: 250px 382.525px;" id="elyf5659zyxoq" class="animable"></rect><rect x="416.78" y="398.49" width="33.12" height="0.25" style="fill: rgb(235, 235, 235); transform-origin: 433.34px 398.615px;" id="el8ml2g39r41p" class="animable"></rect><rect x="322.53" y="401.21" width="8.69" height="0.25" style="fill: rgb(235, 235, 235); transform-origin: 326.875px 401.335px;" id="el2p771tob44g" class="animable"></rect><rect x="396.59" y="389.21" width="19.19" height="0.25" style="fill: rgb(235, 235, 235); transform-origin: 406.185px 389.335px;" id="el8hblifuzoiy" class="animable"></rect><rect x="52.46" y="390.89" width="43.19" height="0.25" style="fill: rgb(235, 235, 235); transform-origin: 74.055px 391.015px;" id="elluf2gykdu5" class="animable"></rect><rect x="104.56" y="390.89" width="6.33" height="0.25" style="fill: rgb(235, 235, 235); transform-origin: 107.725px 391.015px;" id="el6dzwwh9icjk" class="animable"></rect><rect x="131.47" y="395.11" width="93.68" height="0.25" style="fill: rgb(235, 235, 235); transform-origin: 178.31px 395.235px;" id="els9v2je7bkji" class="animable"></rect><path d="M237,337.8H43.91a5.71,5.71,0,0,1-5.7-5.71V60.66A5.71,5.71,0,0,1,43.91,55H237a5.71,5.71,0,0,1,5.71,5.71V332.09A5.71,5.71,0,0,1,237,337.8ZM43.91,55.2a5.46,5.46,0,0,0-5.45,5.46V332.09a5.46,5.46,0,0,0,5.45,5.46H237a5.47,5.47,0,0,0,5.46-5.46V60.66A5.47,5.47,0,0,0,237,55.2Z" style="fill: rgb(235, 235, 235); transform-origin: 140.46px 196.4px;" id="el12shohwaz6w" class="animable"></path><path d="M453.31,337.8H260.21a5.72,5.72,0,0,1-5.71-5.71V60.66A5.72,5.72,0,0,1,260.21,55h193.1A5.71,5.71,0,0,1,459,60.66V332.09A5.71,5.71,0,0,1,453.31,337.8ZM260.21,55.2a5.47,5.47,0,0,0-5.46,5.46V332.09a5.47,5.47,0,0,0,5.46,5.46h193.1a5.47,5.47,0,0,0,5.46-5.46V60.66a5.47,5.47,0,0,0-5.46-5.46Z" style="fill: rgb(235, 235, 235); transform-origin: 356.75px 196.4px;" id="eltu2379m0ld" class="animable"></path><g id="elscsgxtfzm5s"><rect x="57.07" y="282" width="220.95" height="99.18" rx="19.67" style="fill: rgb(224, 224, 224); transform-origin: 167.545px 331.59px; transform: rotate(180deg);" class="animable"></rect></g><g id="eljov9abft4f"><rect x="65.91" y="282.73" width="220.95" height="99.18" rx="19.67" style="fill: rgb(240, 240, 240); transform-origin: 176.385px 332.32px; transform: rotate(180deg);" class="animable"></rect></g><g id="el335x5kwm7w8"><path d="M76,292.08h199.4a0,0,0,0,1,0,0v23.26a13.74,13.74,0,0,1-13.74,13.74H89.78A13.74,13.74,0,0,1,76,315.35V292.08A0,0,0,0,1,76,292.08Z" style="fill: rgb(224, 224, 224); transform-origin: 175.7px 310.58px; transform: rotate(180deg);" class="animable"></path></g><g id="el2rbqan1jmpo"><path d="M89.78,334.09H261.7a13.74,13.74,0,0,1,13.74,13.74v23.26a0,0,0,0,1,0,0H76a0,0,0,0,1,0,0V347.83A13.74,13.74,0,0,1,89.78,334.09Z" style="fill: rgb(224, 224, 224); transform-origin: 175.72px 352.59px; transform: rotate(180deg);" class="animable"></path></g><rect x="129" y="299.25" width="28.26" height="30.08" style="fill: rgb(230, 230, 230); transform-origin: 143.13px 314.29px;" id="elb0a846d1j0o" class="animable"></rect><rect x="157.26" y="299.25" width="7.24" height="30.08" style="fill: rgb(245, 245, 245); transform-origin: 160.88px 314.29px;" id="elnvzmntz6ja" class="animable"></rect><rect x="121.59" y="294.61" width="21.23" height="34.72" style="fill: rgb(230, 230, 230); transform-origin: 132.205px 311.97px;" id="elvgz85fiz71" class="animable"></rect><rect x="142.81" y="294.61" width="6.14" height="34.72" style="fill: rgb(245, 245, 245); transform-origin: 145.88px 311.97px;" id="elay71uqtge89" class="animable"></rect><rect x="118.66" y="299.25" width="17.9" height="30.08" style="fill: rgb(235, 235, 235); transform-origin: 127.61px 314.29px;" id="el38l149gcojc" class="animable"></rect><rect x="136.56" y="299.25" width="4.09" height="30.08" style="fill: rgb(245, 245, 245); transform-origin: 138.605px 314.29px;" id="el511xjngxhs5" class="animable"></rect><rect x="98.44" y="304.34" width="23.48" height="24.99" style="fill: rgb(230, 230, 230); transform-origin: 110.18px 316.835px;" id="elug4r8cpe6cc" class="animable"></rect><rect x="121.91" y="304.34" width="6.01" height="24.99" style="fill: rgb(245, 245, 245); transform-origin: 124.915px 316.835px;" id="elksw4yjjc13a" class="animable"></rect><rect x="92.28" y="300.48" width="17.64" height="28.85" style="fill: rgb(230, 230, 230); transform-origin: 101.1px 314.905px;" id="eltb8165boga" class="animable"></rect><rect x="109.91" y="300.48" width="5.1" height="28.85" style="fill: rgb(245, 245, 245); transform-origin: 112.46px 314.905px;" id="elo67v05uprp" class="animable"></rect><rect x="87.59" y="304.34" width="17.13" height="24.99" style="fill: rgb(230, 230, 230); transform-origin: 96.155px 316.835px;" id="els196lr7yf5" class="animable"></rect><rect x="104.73" y="304.34" width="3.39" height="24.99" style="fill: rgb(240, 240, 240); transform-origin: 106.425px 316.835px;" id="elq8jqu9ic3fq" class="animable"></rect><rect x="216.94" y="339.87" width="28.26" height="30.08" style="fill: rgb(230, 230, 230); transform-origin: 231.07px 354.91px;" id="elb2bxoxqkhqq" class="animable"></rect><rect x="245.2" y="339.87" width="7.24" height="30.08" style="fill: rgb(245, 245, 245); transform-origin: 248.82px 354.91px;" id="elsbdz4760a4p" class="animable"></rect><rect x="209.53" y="335.23" width="21.23" height="34.72" style="fill: rgb(230, 230, 230); transform-origin: 220.145px 352.59px;" id="elb4d4s4w546j" class="animable"></rect><rect x="230.75" y="335.23" width="6.14" height="34.72" style="fill: rgb(245, 245, 245); transform-origin: 233.82px 352.59px;" id="el6c7tq4ik5h3" class="animable"></rect><rect x="120.53" y="339.87" width="28.26" height="30.08" style="fill: rgb(230, 230, 230); transform-origin: 134.66px 354.91px;" id="elf74lrhcm6q" class="animable"></rect><rect x="148.79" y="339.87" width="7.24" height="30.08" style="fill: rgb(245, 245, 245); transform-origin: 152.41px 354.91px;" id="el0k26rxbshv8l" class="animable"></rect><rect x="113.12" y="335.23" width="21.23" height="34.72" style="fill: rgb(230, 230, 230); transform-origin: 123.735px 352.59px;" id="el0f1qojpc6hvr" class="animable"></rect><rect x="134.34" y="335.23" width="6.14" height="34.72" style="fill: rgb(245, 245, 245); transform-origin: 137.41px 352.59px;" id="elgpyyetnnlmk" class="animable"></rect><rect x="206.61" y="339.87" width="17.9" height="30.08" style="fill: rgb(235, 235, 235); transform-origin: 215.56px 354.91px;" id="el5wxzjfnreol" class="animable"></rect><rect x="224.51" y="339.87" width="4.09" height="30.08" style="fill: rgb(245, 245, 245); transform-origin: 226.555px 354.91px;" id="elmdps3a4ybta" class="animable"></rect><rect x="186.38" y="344.96" width="23.48" height="24.99" style="fill: rgb(230, 230, 230); transform-origin: 198.12px 357.455px;" id="elxeazwvb1rdl" class="animable"></rect><rect x="209.86" y="344.96" width="6.01" height="24.99" style="fill: rgb(245, 245, 245); transform-origin: 212.865px 357.455px;" id="el8am7r4z4czk" class="animable"></rect><rect x="180.22" y="341.11" width="17.64" height="28.85" style="fill: rgb(230, 230, 230); transform-origin: 189.04px 355.535px;" id="eljkvmo9igh8k" class="animable"></rect><rect x="197.85" y="341.11" width="5.1" height="28.85" style="fill: rgb(245, 245, 245); transform-origin: 200.4px 355.535px;" id="eljoq52uw1c8" class="animable"></rect><rect x="175.53" y="344.96" width="17.13" height="24.99" style="fill: rgb(230, 230, 230); transform-origin: 184.095px 357.455px;" id="elfa4o83nspj" class="animable"></rect><rect x="192.67" y="344.96" width="3.39" height="24.99" style="fill: rgb(240, 240, 240); transform-origin: 194.365px 357.455px;" id="elf1vrsm1cd1" class="animable"></rect><path d="M217.17,300.16a3.05,3.05,0,0,1,3.23-1.61,3.2,3.2,0,0,1,2.4,2.79,2.7,2.7,0,0,1,3.06-.08,3,3,0,0,1,1.23,3,2.25,2.25,0,0,1,3.27.67,2.52,2.52,0,0,1-1,3.35,1.66,1.66,0,0,1,1.43,1.66,1.63,1.63,0,0,1-1.51,1.57,1.76,1.76,0,0,1,1.61,1.54,1.81,1.81,0,0,1-1.21,1.9,1.48,1.48,0,0,1,.35,2.28,1.33,1.33,0,0,1-2.09-.67.43.43,0,0,1-.69.11.5.5,0,0,1,.13-.72.8.8,0,0,1-1.38-.35,2,2,0,0,1-2.69,2.12,1.23,1.23,0,0,1-.8,1.64,2.73,2.73,0,0,1-1.95-.38,4.38,4.38,0,0,0-1.91-.64,6.13,6.13,0,0,0-1.71.47,5.14,5.14,0,0,1-5.21-1.37,2.23,2.23,0,0,1-3.72-.57,1.56,1.56,0,0,1-3,.18l0,1a2,2,0,0,1-2-2.65,2,2,0,0,1-1.92-1.75,2.07,2.07,0,0,1,1.43-2.21,3.91,3.91,0,0,1-.08-7.42,1.88,1.88,0,0,1,1.78.24,1.13,1.13,0,0,1,0,1.69,3.6,3.6,0,0,1,1.53-4,3.2,3.2,0,0,1,4,.87,2,2,0,0,1,0-2.23,1.77,1.77,0,0,1,2-.68,2,2,0,0,1,2.18-1.65,2.1,2.1,0,0,1,1.64,2.24,1,1,0,0,1,1.85-.34C217.88,299.88,217.17,300.16,217.17,300.16Z" style="fill: rgb(235, 235, 235); transform-origin: 215.352px 308.827px;" id="elf0h7x1p95v" class="animable"></path><path d="M216.81,309.82a1.81,1.81,0,0,1,1.38-.33,1.27,1.27,0,0,1,1,.94,1,1,0,0,1-.67,1.14c-.58.13-1.15-.34-1.74-.26a4.76,4.76,0,0,0-.61.19,3,3,0,0,1-2.37-.85,2.51,2.51,0,0,1-.67-.63.9.9,0,0,1-.07-.88,1.14,1.14,0,0,1,1.15-.37,4.6,4.6,0,0,1,2.35,1c0-.14,0-.27-.07-.4Z" style="fill: rgb(250, 250, 250); transform-origin: 216.093px 310.164px;" id="elcm2xm2d3elg" class="animable"></path><path d="M204.56,309.09a2.13,2.13,0,0,1,.73-.38.75.75,0,0,1,.77.21.77.77,0,0,1-.22,1,2.21,2.21,0,0,1-1.07.37c-.39.06-.88.07-1.07-.27a.67.67,0,0,1,.18-.78,2.09,2.09,0,0,1,.76-.38Z" style="fill: rgb(250, 250, 250); transform-origin: 204.901px 309.5px;" id="elxbhfp0q463b" class="animable"></path><path d="M223.92,302.72a2.7,2.7,0,0,1,1.56,1.87c.06.25.05.57-.17.7a.74.74,0,0,1-.53,0l-2.24-.53a3.18,3.18,0,0,1,1,.54,1.07,1.07,0,0,1,.38,1,1,1,0,0,1-1,.7,2.25,2.25,0,0,1-1.23-.49,1.59,1.59,0,0,1-.78-1.15c0-.48.6-.93,1-.62a7.92,7.92,0,0,1-2.4-1.1,2.07,2.07,0,0,1-.7-.65.9.9,0,0,1-.07-.91c.77-1.4,1.73.65,2.21.83C221.77,303.28,222.78,302.25,223.92,302.72Z" style="fill: rgb(250, 250, 250); transform-origin: 222.08px 304.297px;" id="eljjbopw9vrm" class="animable"></path><path d="M227.4,308.67a.72.72,0,0,1-.19.77.48.48,0,0,1-.72-.14,2.47,2.47,0,0,1,1.35.76.87.87,0,0,1-.27,1.32,1.22,1.22,0,0,1-.93-.21,17.12,17.12,0,0,1-2.31-1.53c.22.52-.32,1.1-.88,1.15a2.73,2.73,0,0,1-1.55-.55c-.59-.35-1.26-.9-1.11-1.57a1.14,1.14,0,0,1,1.45-.67,3.23,3.23,0,0,1,1.41,1.08c-.32-.46.13-1.14.68-1.22a1.67,1.67,0,0,1,1.4.65c-.62-.34-.76-1.23.08-1.34C226.35,307.11,227.27,308.21,227.4,308.67Z" style="fill: rgb(250, 250, 250); transform-origin: 224.402px 309.284px;" id="elss8nmvk24er" class="animable"></path><path d="M210.28,306.66a.9.9,0,1,1,.46,1.74,1.4,1.4,0,0,1,.95.5.71.71,0,0,1,.2.55.7.7,0,0,1-.67.52,2,2,0,0,1-.88-.25,1.6,1.6,0,0,1,.86.25.56.56,0,0,1,.13.79.73.73,0,0,1-.72.08,3.53,3.53,0,0,1-1.47-.83,1.39,1.39,0,0,1-1.23.52.83.83,0,0,1-.7-1A.89.89,0,0,1,208,309a2.16,2.16,0,0,1,1,.16,1.87,1.87,0,0,1-.78-.87c-.12-.37.14-.88.53-.85s.67.64,1,.86C210.14,307.86,209.33,307,210.28,306.66Z" style="fill: rgb(250, 250, 250); transform-origin: 209.541px 308.763px;" id="elkv1slf2hll" class="animable"></path><path d="M218.28,304.82a1.79,1.79,0,0,1,.64,1.62,1.88,1.88,0,0,1-1,1.66,1.53,1.53,0,0,1-2-1.19,2.16,2.16,0,0,1,1.21-2.17A1.19,1.19,0,0,1,218.28,304.82Z" style="fill: rgb(250, 250, 250); transform-origin: 217.422px 306.405px;" id="el33b25suvsio" class="animable"></path><path d="M212.61,304.09l-.21.18a1,1,0,1,1,0,1.26,1.5,1.5,0,0,1-1.77-.33,1.16,1.16,0,0,1,.24-1.68.94.94,0,0,1,1.36.8l.24-.27Z" style="fill: rgb(250, 250, 250); transform-origin: 212.275px 304.66px;" id="elmcsf0abobh" class="animable"></path><path d="M206.36,305.1a3.32,3.32,0,0,1,1,1.36,1.1,1.1,0,0,1-.64,1.37c-.54.14-1.06-.3-1.37-.77a1.68,1.68,0,0,1-.33-1.42c.16-.48.85-.76,1.2-.4Z" style="fill: rgb(250, 250, 250); transform-origin: 206.198px 306.466px;" id="elzqlfce335so" class="animable"></path><path d="M215.37,301.82a.92.92,0,0,1,1.27-.35,1.11,1.11,0,0,1,.4,1.32,1.43,1.43,0,0,1-1.16.84c-.61.06-1.34-.43-1.2-1a1.32,1.32,0,0,1-1.18.45,3.08,3.08,0,0,1-1.22-.46c-.51-.3-1.06-.76-1-1.35a1.07,1.07,0,0,1,1-.88,1.84,1.84,0,0,1,1.3.48,10,10,0,0,0,.83.76,1.06,1.06,0,0,0,1,.15Z" style="fill: rgb(250, 250, 250); transform-origin: 214.197px 302.012px;" id="el6wqvnwohigx" class="animable"></path><polygon points="207.68 329.32 223.17 329.32 224.68 313.71 206.16 313.71 207.68 329.32" style="fill: rgb(240, 240, 240); transform-origin: 215.42px 321.515px;" id="ellacngsvg27o" class="animable"></polygon><polygon points="204.96 314.52 226.03 314.52 226.41 312.44 204.58 312.44 204.96 314.52" style="fill: rgb(250, 250, 250); transform-origin: 215.495px 313.48px;" id="ely9zz8lgt6qe" class="animable"></polygon><rect x="157.26" y="305.89" width="7.24" height="3.4" style="fill: rgb(255, 255, 255); transform-origin: 160.88px 307.59px;" id="elyddmf9vekf" class="animable"></rect><rect x="134.19" y="350.89" width="6.46" height="3.4" style="fill: rgb(255, 255, 255); transform-origin: 137.42px 352.59px;" id="el3658292c4lv" class="animable"></rect><rect x="121.91" y="311.78" width="6.01" height="9.76" style="fill: rgb(255, 255, 255); transform-origin: 124.915px 316.66px;" id="elmudgc5d4vl" class="animable"></rect><rect x="245.82" y="353.23" width="6.01" height="5.33" style="fill: rgb(255, 255, 255); transform-origin: 248.825px 355.895px;" id="elcz996nffr0f" class="animable"></rect><rect x="150.02" y="322.87" width="7.24" height="3.4" style="fill: rgb(255, 255, 255); transform-origin: 153.64px 324.57px;" id="elbsj8w1ougac" class="animable"></rect><rect x="148.79" y="346.1" width="7.24" height="16.89" style="fill: rgb(255, 255, 255); transform-origin: 152.41px 354.545px;" id="el7pebiwfp7km" class="animable"></rect><rect x="209.86" y="349.01" width="6.01" height="16.89" style="fill: rgb(255, 255, 255); transform-origin: 212.865px 357.455px;" id="elyq2ve4yzewi" class="animable"></rect><rect x="105.28" y="306.24" width="2.28" height="21.19" style="fill: rgb(255, 255, 255); transform-origin: 106.42px 316.835px;" id="ela95lwugcdsa" class="animable"></rect><g id="elaihk1chxukb"><rect x="299.22" y="71.94" width="113.78" height="172.02" style="fill: rgb(224, 224, 224); transform-origin: 356.11px 157.95px; transform: rotate(180deg);" class="animable"></rect></g><g id="el9wtw1iv3zov"><rect x="294.55" y="71.94" width="119.21" height="172.02" style="fill: rgb(235, 235, 235); transform-origin: 354.155px 157.95px; transform: rotate(180deg);" class="animable"></rect></g><g id="el6pj32u7b1kk"><rect x="300.96" y="77.1" width="106.63" height="159.44" style="fill: rgb(250, 250, 250); transform-origin: 354.275px 156.82px; transform: rotate(180deg);" class="animable"></rect></g><g id="elijz8l4ahkcb"><rect x="300.96" y="77.1" width="4.02" height="159.44" style="fill: rgb(224, 224, 224); transform-origin: 302.97px 156.82px; transform: rotate(180deg);" class="animable"></rect></g><g id="elme0centm11"><rect x="354.24" y="117.41" width="4.02" height="103.4" style="fill: rgb(224, 224, 224); transform-origin: 356.25px 169.11px; transform: rotate(-90deg);" class="animable"></rect></g><g id="elf6vyhm9t1fn"><rect x="354.24" y="27.41" width="4.02" height="103.4" style="fill: rgb(224, 224, 224); transform-origin: 356.25px 79.11px; transform: rotate(-90deg);" class="animable"></rect></g><g id="elwrak87wcr58"><rect x="300.96" y="160.36" width="108.79" height="6.75" style="fill: rgb(235, 235, 235); transform-origin: 355.355px 163.735px; transform: rotate(180deg);" class="animable"></rect></g><rect x="150.7" y="116.23" width="34.76" height="49.18" style="fill: rgb(240, 240, 240); transform-origin: 168.08px 140.82px;" id="elbvxdvjvhe5" class="animable"></rect><rect x="152.96" y="118.54" width="30.22" height="44.56" style="fill: rgb(250, 250, 250); transform-origin: 168.07px 140.82px;" id="el9rjugtabmw8" class="animable"></rect><rect x="194.36" y="133.29" width="34.76" height="49.18" style="fill: rgb(240, 240, 240); transform-origin: 211.74px 157.88px;" id="elqvppvediv9m" class="animable"></rect><rect x="196.63" y="135.6" width="30.22" height="44.56" style="fill: rgb(250, 250, 250); transform-origin: 211.74px 157.88px;" id="el08izv1567hz7" class="animable"></rect><g id="elt7mf9x129t"><rect x="147.67" y="168.25" width="31.29" height="44.28" style="fill: rgb(240, 240, 240); transform-origin: 163.315px 190.39px; transform: rotate(90deg);" class="animable"></rect></g><g id="el4n3cfiwmvxp"><rect x="149.71" y="170.33" width="27.21" height="40.12" style="fill: rgb(250, 250, 250); transform-origin: 163.315px 190.39px; transform: rotate(90deg);" class="animable"></rect></g><g id="el0heg0s4s2al8"><rect x="201.57" y="181.87" width="34.76" height="49.18" style="fill: rgb(240, 240, 240); transform-origin: 218.95px 206.46px; transform: rotate(90deg);" class="animable"></rect></g><g id="elslsxobdp4y"><rect x="203.84" y="184.18" width="30.22" height="44.56" style="fill: rgb(250, 250, 250); transform-origin: 218.95px 206.46px; transform: rotate(90deg);" class="animable"></rect></g><g id="eleg66vx5hfkq"><rect x="158.24" y="216.66" width="27.21" height="38.51" style="fill: rgb(240, 240, 240); transform-origin: 171.845px 235.915px; transform: rotate(180deg);" class="animable"></rect></g><g id="el5r5gi4jvhpm"><rect x="160.02" y="218.47" width="23.66" height="34.89" style="fill: rgb(250, 250, 250); transform-origin: 171.85px 235.915px; transform: rotate(180deg);" class="animable"></rect></g><path d="M394.23,339,407,302.33s-17.64,13.08-17.52-1.42,8-3.24,10.78-8.59-7.82-5.3-4.11-13.42,14.25,4.35,16.12-2.84,4.83-10.86,12.51-10.21c0,0,4.15,9.47-.94,16.3s12.59,1.36,10.79,8.24-7.7,12.89-10.3,8-5.89,4.44-1.45,6.83S417,318,414.77,312.58A57,57,0,0,0,409,302.32l-11.72,39.22Z" style="fill: rgb(235, 235, 235); transform-origin: 412.119px 303.658px;" id="elhdu61p2xpjm" class="animable"></path><path d="M381.12,339.31l-14.34-23.44s14.19,6.39,11.91-3.63-6.05-1-8.76-4.32,4.62-4.85.82-9.91-9.2,5.17-11.58.48-5-6.78-10.2-5.18c0,0-1.44,7.18,3.11,11.14s-8.5,2.85-6.22,7.34,7.27,7.75,8.34,4,4.75,2.18,2,4.51,5.94,7.94,6.68,3.85a40.08,40.08,0,0,1,2.44-8l14,25.37Z" style="fill: rgb(230, 230, 230); transform-origin: 363.355px 317.149px;" id="elnlidy0yvcja" class="animable"></path><path d="M390.78,339.54l-6.57-37.76s15.12,15.55,17.31,1.4-7.32-4.44-9.14-10.1,8.47-3.92,6.14-12.43-14.59,2-15.26-5.33-3-11.35-10.58-11.94c0,0-5.55,8.56-1.68,16s-12.48-.67-11.83,6.32,5.46,13.79,8.76,9.48,5,5.26.33,6.89,3.64,13.35,6.69,8.41a56.64,56.64,0,0,1,7.27-9.09l5.18,40.11Z" style="fill: rgb(240, 240, 240); transform-origin: 380.498px 302.44px;" id="eltz8ay6l6s0d" class="animable"></path><path d="M398.37,381.66H372.68a3.4,3.4,0,0,1-3.4-3.19l-2.72-44.32a3.4,3.4,0,0,1,3.39-3.61h31.14a3.41,3.41,0,0,1,3.4,3.61l-2.73,44.32A3.4,3.4,0,0,1,398.37,381.66Z" style="fill: rgb(224, 224, 224); transform-origin: 385.525px 356.1px;" id="elfts3nzn9ldc" class="animable"></path><rect x="363.19" y="328.74" width="44.35" height="6.8" rx="3.38" style="fill: rgb(235, 235, 235); transform-origin: 385.365px 332.14px;" id="elyqwkci712wb" class="animable"></rect></g><g id="freepik--Shadow--inject-71" class="animable" style="transform-origin: 250px 416.24px;"><ellipse id="freepik--path--inject-71" cx="250" cy="416.24" rx="193.89" ry="11.32" style="fill: rgb(245, 245, 245); transform-origin: 250px 416.24px;" class="animable"></ellipse></g><g id="freepik--Garlands--inject-71" class="animable" style="transform-origin: 249.175px 87.375px;"><path d="M245.46,95.47C129.69,95.47,81,69.54,80.54,69.28l.48-.87c.48.26,49,26.06,164.44,26.06s169.44-26.13,170-26.4l.44.9C415.35,69.23,361.23,95.47,245.46,95.47Z" style="fill: rgb(0, 255, 136); transform-origin: 248.22px 81.77px;" id="elm7nlweou6da" class="animable"></path><polygon points="94.38 74.53 96.62 87.88 107.7 78.82 94.38 74.53" style="fill: rgb(0, 255, 136); transform-origin: 101.04px 81.205px;" id="elahq2k00p8qn" class="animable"></polygon><polygon points="107.7 78.82 112.98 92.37 125.01 83.27 107.7 78.82" style="fill: rgb(0, 255, 136); transform-origin: 116.355px 85.595px;" id="elldphyslftwh" class="animable"></polygon><polygon points="125.01 83.27 131.68 97.11 142.9 86.87 125.01 83.27" style="fill: rgb(0, 255, 136); transform-origin: 133.955px 90.19px;" id="elis19g48uyvq" class="animable"></polygon><polygon points="142.9 86.87 149.04 99.49 159.64 90.19 142.9 86.87" style="fill: rgb(0, 255, 136); transform-origin: 151.27px 93.18px;" id="ell5jrhja6gjb" class="animable"></polygon><polygon points="159.64 90.19 168.34 103.71 181.27 92.05 159.64 90.19" style="fill: rgb(0, 255, 136); transform-origin: 170.455px 96.95px;" id="elg7rfdkctumq" class="animable"></polygon><polygon points="181.27 92.05 189.97 106.35 203.45 93.77 181.27 92.05" style="fill: rgb(0, 255, 136); transform-origin: 192.36px 99.2px;" id="elcx163m3o51a" class="animable"></polygon><polygon points="203.45 93.77 212.39 107.4 223.73 94.66 203.45 93.77" style="fill: rgb(0, 255, 136); transform-origin: 213.59px 100.585px;" id="elvs96cj6mys" class="animable"></polygon><polygon points="223.73 94.66 234.81 109.77 243.81 94.97 223.73 94.66" style="fill: rgb(0, 255, 136); transform-origin: 233.77px 102.215px;" id="elal5scck9xv7" class="animable"></polygon><polygon points="243.81 94.97 253 109.77 263.29 94.97 243.81 94.97" style="fill: rgb(0, 255, 136); transform-origin: 253.55px 102.37px;" id="elg4a06hv096u" class="animable"></polygon><polygon points="263.29 94.97 274.1 106.35 280.96 94.66 263.29 94.97" style="fill: rgb(0, 255, 136); transform-origin: 272.125px 100.505px;" id="elbgv1z30x1h9" class="animable"></polygon><polygon points="280.96 94.66 290.98 106.35 299.16 93.18 280.96 94.66" style="fill: rgb(0, 255, 136); transform-origin: 290.06px 99.765px;" id="el2ao9vy3noa4" class="animable"></polygon><polygon points="299.16 93.18 312.34 105.03 320.54 90.94 299.16 93.18" style="fill: rgb(0, 255, 136); transform-origin: 309.85px 97.985px;" id="elepmi77opuce" class="animable"></polygon><polygon points="320.54 90.94 332 102.22 339.18 88.48 320.54 90.94" style="fill: rgb(0, 255, 136); transform-origin: 329.86px 95.35px;" id="elzm69p0bv32" class="animable"></polygon><polygon points="339.18 88.48 352.89 99.76 359.55 85.59 339.18 88.48" style="fill: rgb(0, 255, 136); transform-origin: 349.365px 92.675px;" id="el7sj7la1wj84" class="animable"></polygon><polygon points="359.55 85.59 373.86 94.66 377.09 81.1 359.55 85.59" style="fill: rgb(0, 255, 136); transform-origin: 368.32px 87.88px;" id="ely9hb247hpf" class="animable"></polygon><polygon points="377.09 81.1 389.16 92.68 394.38 76.36 377.09 81.1" style="fill: rgb(0, 255, 136); transform-origin: 385.735px 84.52px;" id="elmyhc67mddb" class="animable"></polygon><polygon points="394.38 76.36 402.28 86.87 406.06 72.45 394.38 76.36" style="fill: rgb(0, 255, 136); transform-origin: 400.22px 79.66px;" id="eljody8opw8jp" class="animable"></polygon><g id="eld1akkk65ph9"><polygon points="94.38 74.53 96.62 87.88 107.7 78.82 94.38 74.53" style="fill: rgb(255, 255, 255); isolation: isolate; opacity: 0.6; transform-origin: 101.04px 81.205px;" class="animable"></polygon></g><g id="el0z4c4f2xg48n"><polygon points="107.7 78.82 112.98 92.37 125.01 83.27 107.7 78.82" style="fill: rgb(255, 255, 255); isolation: isolate; opacity: 0.4; transform-origin: 116.355px 85.595px;" class="animable"></polygon></g><g id="el4zi830w6klv"><polygon points="125.01 83.27 131.68 97.11 142.9 86.87 125.01 83.27" style="fill: rgb(255, 255, 255); isolation: isolate; opacity: 0.6; transform-origin: 133.955px 90.19px;" class="animable"></polygon></g><g id="elqrdxqcs703"><polygon points="142.9 86.87 149.04 99.49 159.64 90.19 142.9 86.87" style="fill: rgb(255, 255, 255); isolation: isolate; opacity: 0.4; transform-origin: 151.27px 93.18px;" class="animable"></polygon></g><g id="el2z2ct1sehl5"><polygon points="159.64 90.19 168.34 103.71 181.27 92.05 159.64 90.19" style="fill: rgb(255, 255, 255); isolation: isolate; opacity: 0.6; transform-origin: 170.455px 96.95px;" class="animable"></polygon></g><g id="elyf9tr6pws1"><polygon points="181.27 92.05 189.97 106.35 203.45 93.77 181.27 92.05" style="fill: rgb(255, 255, 255); isolation: isolate; opacity: 0.4; transform-origin: 192.36px 99.2px;" class="animable"></polygon></g><g id="elivur1jy3v29"><polygon points="203.45 93.77 212.39 107.4 223.73 94.66 203.45 93.77" style="fill: rgb(255, 255, 255); isolation: isolate; opacity: 0.6; transform-origin: 213.59px 100.585px;" class="animable"></polygon></g><g id="eld3fdxp49jv"><polygon points="223.73 94.66 234.81 109.77 243.81 94.97 223.73 94.66" style="fill: rgb(255, 255, 255); isolation: isolate; opacity: 0.4; transform-origin: 233.77px 102.215px;" class="animable"></polygon></g><g id="el12j1hor0xo"><polygon points="243.81 94.97 253 109.77 263.29 94.97 243.81 94.97" style="fill: rgb(255, 255, 255); isolation: isolate; opacity: 0.6; transform-origin: 253.55px 102.37px;" class="animable"></polygon></g><g id="el018z3hqzqpfum"><polygon points="263.29 94.97 274.1 106.35 280.96 94.66 263.29 94.97" style="fill: rgb(255, 255, 255); isolation: isolate; opacity: 0.4; transform-origin: 272.125px 100.505px;" class="animable"></polygon></g><g id="elajjt25f46ah"><polygon points="280.96 94.66 290.98 106.35 299.16 93.18 280.96 94.66" style="fill: rgb(255, 255, 255); isolation: isolate; opacity: 0.6; transform-origin: 290.06px 99.765px;" class="animable"></polygon></g><g id="elwo2z8nrwh9m"><polygon points="299.16 93.18 312.34 105.03 320.54 90.94 299.16 93.18" style="fill: rgb(255, 255, 255); isolation: isolate; opacity: 0.4; transform-origin: 309.85px 97.985px;" class="animable"></polygon></g><g id="ele65sve7vd4r"><polygon points="320.54 90.94 332 102.22 339.18 88.48 320.54 90.94" style="fill: rgb(255, 255, 255); isolation: isolate; opacity: 0.6; transform-origin: 329.86px 95.35px;" class="animable"></polygon></g><g id="elewtgv2l4edv"><polygon points="339.18 88.48 352.89 99.76 359.55 85.59 339.18 88.48" style="fill: rgb(255, 255, 255); isolation: isolate; opacity: 0.4; transform-origin: 349.365px 92.675px;" class="animable"></polygon></g><g id="elkz2sfua4yca"><polygon points="359.55 85.59 373.86 94.66 377.09 81.1 359.55 85.59" style="fill: rgb(255, 255, 255); isolation: isolate; opacity: 0.6; transform-origin: 368.32px 87.88px;" class="animable"></polygon></g><g id="el0i9foweevc2f"><polygon points="377.09 81.1 389.16 92.68 394.38 76.36 377.09 81.1" style="fill: rgb(255, 255, 255); isolation: isolate; opacity: 0.4; transform-origin: 385.735px 84.52px;" class="animable"></polygon></g><g id="eljzqih82xxio"><polygon points="394.38 76.36 402.28 86.87 406.06 72.45 394.38 76.36" style="fill: rgb(255, 255, 255); isolation: isolate; opacity: 0.6; transform-origin: 400.22px 79.66px;" class="animable"></polygon></g><path d="M458.73,108.21c-65.59-17.53-108.89-52-109.32-52.35l.7-.86c.43.34,43.55,34.68,108.91,52.13Z" style="fill: rgb(0, 255, 136); transform-origin: 404.215px 81.605px;" id="elx7iksnlqzp" class="animable"></path><path d="M356.62,60.49l1.91,18.42L374.43,72l4.26,22,18.18-9.84,3.3,19.92,15.55-11.27,5.06,20,14.4-12.52,7.52,19.38L456.29,107S396,90.11,356.62,60.49Z" style="fill: rgb(0, 255, 136); transform-origin: 406.455px 90.08px;" id="elkh09altz6t" class="animable"></path><g id="el5ymie4pnlch"><polygon points="356.62 60.49 358.53 78.92 374.08 72.12 356.62 60.49" style="fill: rgb(255, 255, 255); opacity: 0.5; transform-origin: 365.35px 69.705px;" class="animable"></polygon></g><g id="elh5uthm69nt"><polygon points="374.56 72.65 378.69 94.02 396.87 84.18 374.56 72.65" style="fill: rgb(255, 255, 255); opacity: 0.3; transform-origin: 385.715px 83.335px;" class="animable"></polygon></g><g id="elqhtoezwqxn"><polygon points="396.87 84.18 400.18 104.1 415.72 92.83 396.87 84.18" style="fill: rgb(255, 255, 255); opacity: 0.5; transform-origin: 406.295px 94.14px;" class="animable"></polygon></g><g id="elebc006s0hcg"><polygon points="415.72 92.83 420.78 112.87 435.18 100.35 415.72 92.83" style="fill: rgb(255, 255, 255); opacity: 0.3; transform-origin: 425.45px 102.85px;" class="animable"></polygon></g><g id="elbh141muj5lu"><polygon points="435.18 100.35 442.7 119.73 456.29 106.97 435.18 100.35" style="fill: rgb(255, 255, 255); opacity: 0.5; transform-origin: 445.735px 110.04px;" class="animable"></polygon></g><path d="M39.62,108.21l-.29-1.08C104.69,89.68,147.81,55.34,148.24,55l.7.86C148.51,56.2,105.21,90.68,39.62,108.21Z" style="fill: rgb(0, 255, 136); transform-origin: 94.135px 81.605px;" id="elop3fqk6gff" class="animable"></path><path d="M141.73,60.49l-1.91,18.42-15.63-6.34L119.66,94l-18.21-9.68L98.17,104.1,82.8,92.53l-5.23,20.34L63.31,100l-7.66,19.75L42.06,107S105.69,88.71,141.73,60.49Z" style="fill: rgb(0, 255, 136); transform-origin: 91.895px 90.12px;" id="elhddxneumd6t" class="animable"></path><g id="eleaik0qsskq7"><polygon points="42.06 106.97 55.65 119.73 63.31 99.98 42.06 106.97" style="fill: rgb(255, 255, 255); opacity: 0.3; transform-origin: 52.685px 109.855px;" class="animable"></polygon></g><g id="elsacnirldh3"><polygon points="63.31 99.98 77.57 112.87 82.8 92.53 63.31 99.98" style="fill: rgb(255, 255, 255); opacity: 0.5; transform-origin: 73.055px 102.7px;" class="animable"></polygon></g><g id="elx4lopsd6qu"><polygon points="82.8 92.53 98.17 104.1 101.45 84.34 82.8 92.53" style="fill: rgb(255, 255, 255); opacity: 0.3; transform-origin: 92.125px 94.22px;" class="animable"></polygon></g><g id="el0rufbz69kaa"><polygon points="101.45 84.34 119.66 94.02 124.19 72.57 101.45 84.34" style="fill: rgb(255, 255, 255); opacity: 0.5; transform-origin: 112.82px 83.295px;" class="animable"></polygon></g><g id="el554gcx1hrj"><polygon points="124.19 72.57 139.82 78.92 141.73 60.49 124.19 72.57" style="fill: rgb(255, 255, 255); opacity: 0.3; transform-origin: 132.96px 69.705px;" class="animable"></polygon></g></g><g id="freepik--Banner--inject-71" class="animable" style="transform-origin: 242.71px 87.872px;"><path d="M375.8,115s-96.57,3.45-133.67,3.73S109.62,115,109.62,115V57s99.46,7.6,132.51,7.32S375.8,57,375.8,57Z" style="fill: rgb(0, 255, 136); transform-origin: 242.71px 87.872px;" id="elvkuv4louyi" class="animable"></path><g id="ellnawlozhwh"><g style="opacity: 0.2; transform-origin: 242.71px 87.872px;" class="animable"><path d="M375.8,115s-96.57,3.45-133.67,3.73S109.62,115,109.62,115V57s99.46,7.6,132.51,7.32S375.8,57,375.8,57Z" style="fill: rgb(255, 255, 255); transform-origin: 242.71px 87.872px;" id="elt7skkuxclk" class="animable"></path></g></g><path d="M359.62,73.19,374,58.56,362.77,75.19s-1.7.64-2.55,0A2.22,2.22,0,0,1,359.62,73.19Z" style="fill: rgb(0, 255, 136); transform-origin: 366.788px 67.0172px;" id="eljbusixq49pr" class="animable"></path><path d="M371.13,71.29l4-12.19-1.71,12.45a1.08,1.08,0,0,1-1.17.74A1.19,1.19,0,0,1,371.13,71.29Z" style="fill: rgb(0, 255, 136); transform-origin: 373.13px 65.6997px;" id="eleqbbetr0rwl" class="animable"></path><path d="M360.57,60.92,373.07,58l-11.51,5a1,1,0,0,1-1.34-.57A1.2,1.2,0,0,1,360.57,60.92Z" style="fill: rgb(0, 255, 136); transform-origin: 366.579px 60.5421px;" id="el770rs7fyec9" class="animable"></path><path d="M125.09,72.52l-13.74-14L122,74.34a2.73,2.73,0,0,0,2.23-.2A1.48,1.48,0,0,0,125.09,72.52Z" style="fill: rgb(0, 255, 136); transform-origin: 118.232px 66.505px;" id="elbuftju5yx4b" class="animable"></path><path d="M114,70.46,110.2,59.1l1.55,11.3a1.33,1.33,0,0,0,1.31.89C114.11,71.29,114,70.46,114,70.46Z" style="fill: rgb(0, 255, 136); transform-origin: 112.102px 65.1956px;" id="els8wdrnm6ia" class="animable"></path><path d="M123.87,60.7,112.29,58l11.09,4.85a1.21,1.21,0,0,0,1-1A1,1,0,0,0,123.87,60.7Z" style="fill: rgb(0, 255, 136); transform-origin: 118.352px 60.425px;" id="elcr7lzwj2rgp" class="animable"></path><path d="M177.09,75l-9,27.34h-6.79l-6-18.51-6.21,18.51h-6.76l-9-27.34h6.56l6.17,19.22L152.56,75h5.86l6.25,19.37L171,75Z" style="fill: rgb(255, 255, 255); transform-origin: 155.21px 88.67px;" id="el67z3jev9v8d" class="animable"></path><path d="M201.77,97.3v5.08H180.6V75h20.66v5.08H186.89v5.93h12.7V91h-12.7V97.3Z" style="fill: rgb(255, 255, 255); transform-origin: 191.185px 88.69px;" id="elcd959llia34" class="animable"></path><path d="M206.81,75h6.33V97.23h13.71v5.15h-20Z" style="fill: rgb(255, 255, 255); transform-origin: 216.83px 88.69px;" id="el6rb1woqjx26" class="animable"></path><path d="M235.46,101a13.56,13.56,0,0,1-5.31-5,14.63,14.63,0,0,1,0-14.56,13.56,13.56,0,0,1,5.31-5,16.93,16.93,0,0,1,14-.57,12.89,12.89,0,0,1,4.83,3.59l-4.07,3.75a8.73,8.73,0,0,0-6.87-3.2,9.16,9.16,0,0,0-4.53,1.11,8,8,0,0,0-3.11,3.11,9.8,9.8,0,0,0,0,9.06,8,8,0,0,0,3.11,3.11,9.16,9.16,0,0,0,4.53,1.11,8.68,8.68,0,0,0,6.87-3.24L254.31,98a12.67,12.67,0,0,1-4.85,3.63,16.08,16.08,0,0,1-6.44,1.25A15.71,15.71,0,0,1,235.46,101Z" style="fill: rgb(255, 255, 255); transform-origin: 241.26px 88.7531px;" id="elmwxc66n9y4i" class="animable"></path><path d="M263.54,101A13.63,13.63,0,0,1,258.19,96a14.56,14.56,0,0,1,0-14.49,13.58,13.58,0,0,1,5.35-5.06,15.91,15.91,0,0,1,7.68-1.84,15.74,15.74,0,0,1,7.65,1.84,13.94,13.94,0,0,1,0,24.6,15.74,15.74,0,0,1-7.65,1.84A15.91,15.91,0,0,1,263.54,101Zm12-4.66a8,8,0,0,0,3.07-3.11,9.8,9.8,0,0,0,0-9.06,8,8,0,0,0-3.07-3.11,9.18,9.18,0,0,0-8.75,0,8,8,0,0,0-3.06,3.11,9.72,9.72,0,0,0,0,9.06,8,8,0,0,0,3.06,3.11,9.18,9.18,0,0,0,8.75,0Z" style="fill: rgb(255, 255, 255); transform-origin: 271.255px 88.75px;" id="elr23zcl5vkrd" class="animable"></path><path d="M315.82,102.38l0-16.4-8,13.51h-2.86l-8-13.16v16h-5.94V75h5.24l10.23,17,10.08-17h5.19l.08,27.34Z" style="fill: rgb(255, 255, 255); transform-origin: 306.43px 88.69px;" id="elmpas811bvml" class="animable"></path><path d="M349.41,97.3v5.08H328.24V75H348.9v5.08H334.53v5.93h12.69V91H334.53V97.3Z" style="fill: rgb(255, 255, 255); transform-origin: 338.825px 88.69px;" id="el5zi22apbslf" class="animable"></path></g><g id="freepik--character-5--inject-71" class="animable" style="transform-origin: 345.648px 288.134px;"><path d="M309.84,248.22l-7.38,0,3.77,7.78s4.8-1.42,6.2-6Z" style="fill: rgb(228, 137, 123); transform-origin: 307.445px 252.11px;" id="elqcce9ctlmsn" class="animable"></path><polygon points="296.77 252.73 300.65 257.98 306.23 255.98 302.46 248.2 296.77 252.73" style="fill: rgb(228, 137, 123); transform-origin: 301.5px 253.09px;" id="elzlrma3oes2" class="animable"></polygon><polygon points="314.34 242.53 307.16 248.22 310.52 252.6 317.79 246.72 314.34 242.53" style="fill: rgb(228, 137, 123); transform-origin: 312.475px 247.565px;" id="el0wfz2nugo3r" class="animable"></polygon><path d="M335.22,201.48c1.26-4.16,6.27-5.27,9.21-3.41s3.58,6.54,2.42,10.88c-1.94,11.34-9.39,23.84-12.84,27.05l-20.74,16.14-4.66-6.68,18.27-17.23C329.81,224.46,332.46,211.71,335.22,201.48Z" style="fill: rgb(0, 255, 136); transform-origin: 328.002px 224.669px;" id="eln7e4e1vbq5" class="animable"></path><path d="M383.42,408.36h9a.67.67,0,0,1,.63.51l1.45,6.57a1.09,1.09,0,0,1-.84,1.3l-.24,0c-2.9-.05-5-.23-8.65-.23-2.25,0-9,.24-12.12.24s-3.5-3.06-2.23-3.34c5.69-1.24,10-3,11.79-4.6A1.83,1.83,0,0,1,383.42,408.36Z" style="fill: rgb(38, 50, 56); transform-origin: 382.132px 412.555px;" id="elpu4azy2dg2c" class="animable"></path><path d="M345.39,408.13h9a.65.65,0,0,1,.63.51l1.45,6.57a1.08,1.08,0,0,1-.84,1.29.58.58,0,0,1-.23,0c-2.91,0-5-.22-8.66-.22-2.25,0-9,.23-12.11.23s-3.51-3.06-2.24-3.34c5.69-1.24,10-3,11.79-4.59A1.8,1.8,0,0,1,345.39,408.13Z" style="fill: rgb(38, 50, 56); transform-origin: 344.105px 412.321px;" id="eldcw0zmkpk28" class="animable"></path><g id="elgrxtbh0fxcm"><path d="M383.42,408.36h9a.67.67,0,0,1,.63.51l1.45,6.57a1.09,1.09,0,0,1-.84,1.3l-.24,0c-2.9-.05-5-.23-8.65-.23-2.25,0-9,.24-12.12.24s-3.5-3.06-2.23-3.34c5.69-1.24,10-3,11.79-4.6A1.83,1.83,0,0,1,383.42,408.36Z" style="fill: rgb(255, 255, 255); opacity: 0; transform-origin: 382.132px 412.555px;" class="animable"></path></g><g id="elwgx47e75m3"><path d="M345.39,408.13h9a.65.65,0,0,1,.63.51l1.45,6.57a1.08,1.08,0,0,1-.84,1.29.58.58,0,0,1-.23,0c-2.91,0-5-.22-8.66-.22-2.25,0-9,.23-12.11.23s-3.51-3.06-2.24-3.34c5.69-1.24,10-3,11.79-4.59A1.8,1.8,0,0,1,345.39,408.13Z" style="fill: rgb(255, 255, 255); opacity: 0; transform-origin: 344.105px 412.321px;" class="animable"></path></g><path d="M388.18,242.14H349c-3.73,20.35-15.39,102.94-7,167.08h13.26S354,311.81,365.73,280.34c1.34,16.84,15,128.81,15,128.81h13.51s-2-42.12-4-81.9C389,302.19,388.23,247.29,388.18,242.14Z" style="fill: rgb(38, 50, 56); transform-origin: 366.634px 325.68px;" id="elx1b1xuhc63" class="animable"></path><g id="elersntjbbxbb"><path d="M388.18,242.14H349c-3.73,20.35-15.39,102.94-7,167.08h13.26S354,311.81,365.73,280.34c1.34,16.84,15,128.81,15,128.81h13.51s-2-42.12-4-81.9C389,302.19,388.23,247.29,388.18,242.14Z" style="fill: rgb(255, 255, 255); isolation: isolate; opacity: 0.1; transform-origin: 366.634px 325.68px;" class="animable"></path></g><g id="elcx09olw9uzt"><path d="M365.72,280.34c-1.73,4.64-4.37,17-4.37,17l-1-16.65-5.31-6.52Z" style="isolation: isolate; opacity: 0.2; transform-origin: 360.38px 285.755px;" class="animable"></path></g><path d="M390.91,262.14l-46-2.67c4.77-33.61-6.42-52.57-7.82-59.63a1.91,1.91,0,0,1,1.45-2.24c2-.43,4-.8,6.11-1.12a191.34,191.34,0,0,1,28.17-1.89c4.17,0,3.25.12,3.25.12C383.11,200.26,391.31,249.41,390.91,262.14Z" style="fill: rgb(0, 255, 136); transform-origin: 363.988px 228.363px;" id="elhpnwcpqi2kd" class="animable"></path><g id="elq4xap9bsdp"><path d="M390.91,262.14l-46-2.67c4.77-26.43-3.66-46.54-7.82-59.63a1.84,1.84,0,0,1,1.45-2.24c2-.43,4-.8,6.11-1.12a191.34,191.34,0,0,1,28.17-1.89c4.17,0,3.25.12,3.25.12C383.11,200.26,391.31,249.41,390.91,262.14Z" style="fill: rgb(255, 255, 255); isolation: isolate; opacity: 0.2; transform-origin: 363.981px 228.363px;" class="animable"></path></g><path d="M363.64,195.93c-.86,5.27-9.18,10.54-9.18,10.54s-4.25-4.7-4.6-8.28a7.16,7.16,0,0,0,1.33-1.76,3.23,3.23,0,0,0,.4-1.56,6.77,6.77,0,0,0-1-2.88,13.53,13.53,0,0,0-1-1.49l5.78-7.17,1.33-1.65c.06.49.14,1,.24,1.62a38.54,38.54,0,0,0,.84,3.81C358.88,190.8,360.67,194.6,363.64,195.93Z" style="fill: rgb(228, 137, 123); transform-origin: 356.615px 194.075px;" id="el87q89uijrk" class="animable"></path><g id="elmefqexanva"><path d="M357.83,187.11c-.29,3.55-1.61,8.43-6.64,9.32a3.23,3.23,0,0,0,.4-1.56,6.77,6.77,0,0,0-1-2.88,13.53,13.53,0,0,0-1-1.49l5.78-7.17c.5,0,1,0,1.57,0A38.54,38.54,0,0,0,357.83,187.11Z" style="isolation: isolate; opacity: 0.2; transform-origin: 353.71px 189.88px;" class="animable"></path></g><path d="M334.46,168.69s-.13,10,5.58,13.05,3.2-15.18,3.2-15.18Z" style="fill: rgb(38, 50, 56); transform-origin: 339.125px 174.322px;" id="elp99pbmfbvy" class="animable"></path><path d="M339.59,187.59c.19.31.39.6.6.88a10.08,10.08,0,0,0,6.29,3.82A9.18,9.18,0,0,0,353,191a9.06,9.06,0,0,0,3.21-3.6c2.33-4.54,1-8.51-.76-15.4a9.6,9.6,0,0,0-2-4,9.7,9.7,0,0,0-13.68-1.19C334,171.61,336.21,182,339.59,187.59Z" style="fill: rgb(228, 137, 123); transform-origin: 346.833px 178.481px;" id="elklo39msy0u" class="animable"></path><path d="M347.81,165.16l.43,3.12a2.34,2.34,0,0,1,1.89,2.54c-.3,2.81,2.19,6.38,4.56,7.43,0,0-.24-1.11.76-1.1s2.27,5.83,1.18,9c0,0,2.09-3.21,2-9.65,0-6-1.09-10.65-2.81-12.51Z" style="fill: rgb(38, 50, 56); transform-origin: 353.221px 175.07px;" id="eljfxupy5acz" class="animable"></path><path d="M360.17,176.65a6.76,6.76,0,0,1-2.66,4.43c-1.92,1.4-3.7-.12-3.87-2.36-.13-2,.68-5.18,2.95-5.67A3,3,0,0,1,360.17,176.65Z" style="fill: rgb(228, 137, 123); transform-origin: 356.937px 177.298px;" id="elbl0nr1jlrrn" class="animable"></path><path d="M356.71,165.3s-.35-4.16-7.43-5.55-12.95,4-17.85,2.52-2,9.48,7.21,8.26A73.22,73.22,0,0,0,356.71,165.3Z" style="fill: rgb(38, 50, 56); transform-origin: 342.891px 165.072px;" id="el76mm87d0ha2" class="animable"></path><path d="M345.61,177.31c.16.57,0,1.13-.34,1.26s-.77-.22-.94-.79,0-1.13.34-1.26S345.44,176.74,345.61,177.31Z" style="fill: rgb(38, 50, 56); transform-origin: 344.968px 177.545px;" id="elsrg4ogq2p5" class="animable"></path><path d="M339.71,179.05c.16.57,0,1.14-.34,1.27s-.78-.23-.94-.8,0-1.13.34-1.26S339.54,178.49,339.71,179.05Z" style="fill: rgb(38, 50, 56); transform-origin: 339.07px 179.29px;" id="elj8r7wx59wch" class="animable"></path><path d="M341.07,179.91a17.31,17.31,0,0,1-.88,4.33,2.35,2.35,0,0,0,2-.33Z" style="fill: rgb(222, 87, 83); transform-origin: 341.19px 182.122px;" id="el7850y2tr9qp" class="animable"></path><path d="M346.05,173.45a.33.33,0,0,1-.26,0,2.53,2.53,0,0,0-2.39.14.32.32,0,0,1-.46-.09.37.37,0,0,1,.1-.49,3.17,3.17,0,0,1,3-.21.35.35,0,0,1,.16.46A.41.41,0,0,1,346.05,173.45Z" style="fill: rgb(38, 50, 56); transform-origin: 344.56px 173.085px;" id="eli90omn81fna" class="animable"></path><path d="M336.11,177.25a.33.33,0,0,1-.24,0,.34.34,0,0,1-.21-.44,3.6,3.6,0,0,1,2.12-2.39.31.31,0,0,1,.41.23.37.37,0,0,1-.24.44,2.89,2.89,0,0,0-1.66,1.92A.37.37,0,0,1,336.11,177.25Z" style="fill: rgb(38, 50, 56); transform-origin: 336.92px 175.837px;" id="elwvyo3ql4sfj" class="animable"></path><path d="M343.08,185.79a21.73,21.73,0,0,1,2.4,2.22c.16-.11.32-.21.48-.33,2.15-1.47,2.66-2.86,2.57-4a3.59,3.59,0,0,0-1.1-2.21,12.2,12.2,0,0,1-3.62,3.76C343.37,185.6,343.08,185.79,343.08,185.79Z" style="fill: rgb(38, 50, 56); transform-origin: 345.81px 184.74px;" id="eldr9bqpg1e7j" class="animable"></path><path d="M343.81,185.27l.72.64c2-1.39,3.26-2.65,3.48-3.69a3.38,3.38,0,0,0-.58-.71A12.2,12.2,0,0,1,343.81,185.27Z" style="fill: rgb(255, 255, 255); transform-origin: 345.91px 183.71px;" id="eleayk481334" class="animable"></path><path d="M346,187.68c2.15-1.47,2.66-2.86,2.57-4a8.46,8.46,0,0,0-2.06,2.11A3.12,3.12,0,0,0,346,187.68Z" style="fill: rgb(222, 87, 83); transform-origin: 347.287px 185.68px;" id="elv9fau3ms6i" class="animable"></path><g id="ellviecp212e9"><path d="M371.84,204.18s-3.37,15.33-4.57,20.06c-2.42,9.57-21.38,25.29-21.38,25.29s12.44-7.42,19.2-11.14C375,233,378.53,222.67,381,204.48l-1.27-3.78Z" style="isolation: isolate; opacity: 0.2; transform-origin: 363.445px 225.115px;" class="animable"></path></g><path d="M340.92,246.38h-7.38l3.76,7.77s4.8-1.42,6.21-6Z" style="fill: rgb(228, 137, 123); transform-origin: 338.525px 250.265px;" id="elretxl2ejrng" class="animable"></path><polygon points="327.85 250.89 331.72 256.14 337.3 254.14 333.54 246.37 327.85 250.89" style="fill: rgb(228, 137, 123); transform-origin: 332.575px 251.255px;" id="elbld1vnn8r68" class="animable"></polygon><polygon points="345.42 240.69 338.24 246.38 341.6 250.76 348.87 244.88 345.42 240.69" style="fill: rgb(228, 137, 123); transform-origin: 343.555px 245.725px;" id="elyr0cbesshof" class="animable"></polygon><path d="M367.83,198.87c1.26-4.16,6.28-5.27,9.22-3.41s3.58,6.53,2.41,10.88c-1.94,11.34-9.38,23.84-12.83,27l-20.74,16.14-4.66-6.68,18.27-17.23C362.42,221.85,365.08,209.1,367.83,198.87Z" style="fill: rgb(0, 255, 136); transform-origin: 360.621px 222.034px;" id="el6o6rzxan19u" class="animable"></path></g><g id="freepik--character-4--inject-71" class="animable" style="transform-origin: 279.409px 336.626px;"><path d="M278,384.71l2.62,27.6h5l-.79-30.89c.35-6.36,3.21-14.53,5.06-22l-10.95-1.21C278.33,368.16,277.65,380.68,278,384.71Z" style="fill: rgb(178, 91, 82); transform-origin: 283.897px 385.26px;" id="ell4vcuisqa1n" class="animable"></path><polygon points="274.92 378.88 288.62 378.88 292.8 347.94 274.92 348.37 274.92 378.88" style="fill: rgb(38, 50, 56); transform-origin: 283.86px 363.41px;" id="ela8k8xdommdm" class="animable"></polygon><g id="el3t1vvyhg11k"><polygon points="282.08 351.32 291.57 356.14 289.14 375.04 284.37 354.3 282.08 351.32" style="opacity: 0.2; transform-origin: 286.825px 363.18px;" class="animable"></polygon></g><path d="M290,358.18c1.85,9.59,3.45,21.65,5.74,27L305.36,409l4.53-1.69L302.12,382c-1.6-4.68-.27-15.9.26-25.42Z" style="fill: rgb(178, 91, 82); transform-origin: 299.945px 382.79px;" id="el51ey2f5gk9u" class="animable"></path><path d="M275.58,331.4l-.67,17L288.55,354l2.24,24.9H305l-1.14-27.52c-.12-4.54-2.91-13.27-5.48-21.64Z" style="fill: rgb(38, 50, 56); transform-origin: 289.955px 354.32px;" id="elcbuvvxaduf" class="animable"></path><path d="M286.44,292.36s1.94,2.7,3.07,2.25.53-1.94.53-1.94a7.21,7.21,0,0,0,3.45-.62c1.24-.75-.59-1.48-.59-1.48s2.84-.27,3.55-1.68-1.83-2-1.83-2,2.41,0,2.85-1.36-2.65-2.3-2.65-2.3,2.91-1.09,3.3-2.44-1.54-1.91-1.54-1.91,2.07-.6,1.41-2.28-3.32-.62-3.32-.62,1.55-.76,1-2.05-3.6-.78-3.6-.78,1.4-2.06.21-2.36a2.74,2.74,0,0,0-2.26.66s.57-2.36-1.32-2.55A2.68,2.68,0,0,0,286,270.6s-.58-2.76-1.62-2.34-2,3.35-2,3.35l-1,1.78-1-4.9-4.92,5.39Z" style="fill: rgb(38, 50, 56); transform-origin: 286.816px 281.439px;" id="elpyx4cxi1xzs" class="animable"></path><path d="M274.84,273.27s-2.62-.27-3.31,1.32,1,2.57,1,2.57-3.48,0-4.11,1.63,1.72,2,1.72,2-2.11,1.84-2.23,3.05,2.22,1.81,2.22,1.81-1.57,2.12.12,3.34,2,0,2,0-.28,1.91.74,2.71a1.28,1.28,0,0,0,1.82-.15s-.41,1.71.52,2.24,2.06-.49,2.06-.49a4.33,4.33,0,0,0,2.86,1.66c1.89.23,3-4.32,3-4.32Z" style="fill: rgb(38, 50, 56); transform-origin: 275.578px 284.111px;" id="elj26uazhcnn" class="animable"></path><path d="M284.14,299.92l-1.17.57-1.27.57c-.86.39-1.74.74-2.61,1.07a43.23,43.23,0,0,1-5.37,1.64,33.77,33.77,0,0,1-5.4.77,21.66,21.66,0,0,1-5.21-.35l1.66.94a51.14,51.14,0,0,1-3.48-4c-1.18-1.47-2.35-2.95-3.51-4.47l-3.48-4.53c-1.17-1.5-2.32-3-3.54-4.53h0a1.88,1.88,0,0,0-3.17,2c.84,1.76,1.74,3.46,2.64,5.19s1.88,3.4,2.84,5.09,2,3.34,3.09,5a43.77,43.77,0,0,0,3.67,5,2.85,2.85,0,0,0,1.43.9l.22.06a25.87,25.87,0,0,0,7,.91,33.09,33.09,0,0,0,6.8-.68,43.69,43.69,0,0,0,6.45-1.78c1-.41,2.06-.79,3.09-1.27.51-.23,1-.44,1.52-.71s1-.47,1.57-.83a3.78,3.78,0,0,0-3.62-6.64Z" style="fill: rgb(178, 91, 82); transform-origin: 268.624px 299.298px;" id="elrbkm43rqdqb" class="animable"></path><path d="M252.46,290.94l.18-5.21-7,.76s0,4.09,3.4,6Z" style="fill: rgb(178, 91, 82); transform-origin: 249.14px 289.11px;" id="elbll6ti9ywda" class="animable"></path><path d="M248.33,281.9l-1.68.67a2.17,2.17,0,0,0-1.33,2.49l.3,1.43,7-.76-1.59-2.9A2.19,2.19,0,0,0,248.33,281.9Z" style="fill: rgb(178, 91, 82); transform-origin: 248.944px 284.117px;" id="el69e9tdb0ug9" class="animable"></path><path d="M297.7,298.8a66.36,66.36,0,0,1,3.14,20.77c-.14,9,3.5,19.48,3.5,19.48s-16.29,4.2-30.65.93l.72-23.49h0a24.22,24.22,0,0,1,.29-11.72l.62-2.26Z" style="fill: rgb(0, 255, 136); transform-origin: 289.015px 320.013px;" id="eltlc2d5o4zy" class="animable"></path><path d="M290,274.56a11.33,11.33,0,0,1,3.12,8.77,14.78,14.78,0,0,1-3.79,8.64c-.38.43-1.76,1.44-2.34,1.37s0-1.06-.15-1.54a4.69,4.69,0,0,1-.08-1.5,20.43,20.43,0,0,0-3.8-12.71c-1-1.44-3.83-5-.72-5.66C284.93,271.34,288.08,272.69,290,274.56Z" style="fill: rgb(38, 50, 56); transform-origin: 286.99px 282.567px;" id="elnzuqsacxxz" class="animable"></path><path d="M287.86,288.72c-.66,3.23.3,10.95,1.94,10.76,1.34-.16,1,1.37.28,2.68a12.54,12.54,0,0,1-5,4.27,3.65,3.65,0,0,1-5.06-1.58,3.41,3.41,0,0,1-.28-1.2c-.12-.79,1.22-3.24,1.28-3.39a2.08,2.08,0,0,0,.19-.86,3.3,3.3,0,0,0-.22-1.16.25.25,0,0,1,0-.09,6,6,0,0,0-.43-.93,7.51,7.51,0,0,0-.75-1.17l4.46-4.05Z" style="fill: rgb(178, 91, 82); transform-origin: 285.223px 297.807px;" id="elv5jmbmzsyoh" class="animable"></path><path d="M272.18,278.82c-3,1.59.81,11.07,1.78,7.69C275.79,280.09,275.84,276.86,272.18,278.82Z" style="fill: rgb(38, 50, 56); transform-origin: 273.115px 282.742px;" id="el5eiczfnlqti" class="animable"></path><g id="elqb0g4ixea9b"><path d="M287.23,292.17a1.08,1.08,0,0,1,.1.27,2,2,0,0,1,.07.75c-.12,1.83-2,4.44-2.91,5.53a2.74,2.74,0,0,1-2.12,1.24,1.78,1.78,0,0,1-1.16-.56,3.3,3.3,0,0,0-.22-1.16.25.25,0,0,1,0-.09,6,6,0,0,0-.43-.93,3.06,3.06,0,0,0-.21-1.36c.42-.93,1.5-1.32,2.42-1.76S286.45,290.5,287.23,292.17Z" style="isolation: isolate; opacity: 0.2; transform-origin: 283.88px 295.823px;" class="animable"></path></g><path d="M277.56,276.18c-5.74,2.28-6.57,10.63-5.35,15.68a7.85,7.85,0,0,0,13.05,3.77c3-2.9,2.9-6.21,3.29-11.84A7.84,7.84,0,0,0,277.56,276.18Z" style="fill: rgb(178, 91, 82); transform-origin: 280.143px 286.664px;" id="el45kmjac38e5" class="animable"></path><path d="M288,285.19a2.87,2.87,0,0,0-1,1.67c-.18,1-.61-1.65-.28-2S288.1,284.69,288,285.19Z" style="fill: rgb(38, 50, 56); transform-origin: 287.303px 285.881px;" id="elgk9qcm3251c" class="animable"></path><path d="M288.81,284.78c-1.55.44-2.42,2.51-2.35,3.94.1,1.6,1.55,2.83,2.86,1.76a5.32,5.32,0,0,0,1.85-3.26C291.41,285.66,290.36,284.33,288.81,284.78Z" style="fill: rgb(178, 91, 82); transform-origin: 288.83px 287.787px;" id="el27ijpla0968" class="animable"></path><path d="M278.73,285.9c0,.46-.24.85-.54.87s-.53-.34-.52-.81.24-.86.54-.87S278.74,285.43,278.73,285.9Z" style="fill: rgb(38, 50, 56); transform-origin: 278.2px 285.93px;" id="elzbpoeey4kc" class="animable"></path><path d="M273.9,285.87c0,.47-.25.86-.55.88s-.53-.35-.52-.81.24-.86.54-.88S273.9,285.41,273.9,285.87Z" style="fill: rgb(38, 50, 56); transform-origin: 273.365px 285.905px;" id="eldcu9e3et17u" class="animable"></path><path d="M274.73,286.83a13.9,13.9,0,0,1-1.64,3.06,1.82,1.82,0,0,0,1.6.21Z" style="fill: rgb(157, 39, 36); transform-origin: 273.91px 288.514px;" id="el1b6q3xgjtv4" class="animable"></path><path d="M279.94,283.09a.25.25,0,0,1-.2-.06,2,2,0,0,0-1.83-.43.25.25,0,0,1-.32-.18.28.28,0,0,1,.18-.34,2.49,2.49,0,0,1,2.33.52.27.27,0,0,1,0,.38A.29.29,0,0,1,279.94,283.09Z" style="fill: rgb(38, 50, 56); transform-origin: 278.879px 282.538px;" id="eldqb6sgapyf" class="animable"></path><path d="M271.6,283.7a.24.24,0,0,1-.2,0,.28.28,0,0,1,0-.38,2.82,2.82,0,0,1,2.14-1.32.25.25,0,0,1,.25.27.29.29,0,0,1-.28.28,2.24,2.24,0,0,0-1.68,1.06A.27.27,0,0,1,271.6,283.7Z" style="fill: rgb(38, 50, 56); transform-origin: 272.558px 282.861px;" id="el1vl39s09jqq" class="animable"></path><path d="M274.91,291.71a16.78,16.78,0,0,1,1.31,2.21l.43-.13c2-.63,2.65-1.56,2.84-2.41a2.7,2.7,0,0,0-.06-1.25,2.79,2.79,0,0,0-.27-.66,9.78,9.78,0,0,1-3.58,2Z" style="fill: rgb(38, 50, 56); transform-origin: 277.223px 291.695px;" id="elj39n6kv2vo" class="animable"></path><path d="M275.58,291.49l.4.64c1.84-.59,3-1.26,3.45-2a2.79,2.79,0,0,0-.27-.66A9.78,9.78,0,0,1,275.58,291.49Z" style="fill: rgb(255, 255, 255); transform-origin: 277.505px 290.8px;" id="elywl2ocalq4q" class="animable"></path><path d="M276.65,293.79c2-.63,2.65-1.56,2.84-2.41a6.58,6.58,0,0,0-2,1.12A2.46,2.46,0,0,0,276.65,293.79Z" style="fill: rgb(157, 39, 36); transform-origin: 278.07px 292.585px;" id="el7jtvll1elgq" class="animable"></path><path d="M302.34,288.36a43.2,43.2,0,0,1,0,16.08,8.78,8.78,0,0,1-.57,1.68c-.7,2-3.62,3.19-5.59,2.49a3.77,3.77,0,0,1-2.3-4.82l.09-.17.38-1.24.37-1.36c.24-.9.45-1.83.64-2.74a52.08,52.08,0,0,0,.37-9.33Z" style="fill: rgb(178, 91, 82); transform-origin: 298.378px 298.586px;" id="elvvtaffiqijo" class="animable"></path><path d="M292,266.13l-3-4.29,6.34-3.13s2.18,3.45.37,6.9Z" style="fill: rgb(178, 91, 82); transform-origin: 292.714px 262.42px;" id="elotp1md4rrc" class="animable"></path><path d="M290.64,256.29l1.77-.34a2.19,2.19,0,0,1,2.46,1.39l.52,1.37-6.34,3.13-.21-3.3A2.19,2.19,0,0,1,290.64,256.29Z" style="fill: rgb(178, 91, 82); transform-origin: 292.114px 258.876px;" id="eln2mmjn1x2x9" class="animable"></path><path d="M295.9,290.15l-3.79-24.32,4-1.09,6.55,24.79S299.14,294.39,295.9,290.15Z" style="fill: rgb(178, 91, 82); transform-origin: 297.385px 278.313px;" id="elk0hhh41npj" class="animable"></path><path d="M295.6,299.27c-1.93,1.72-3,2.84-2.78,5.42s3.19,8.7,5.34,10.13c2.07-.87,2.37-4.27,3.27-6.32a8.88,8.88,0,0,0,.19-6.55C300.81,299.74,297.35,297.7,295.6,299.27Z" style="fill: rgb(178, 91, 82); transform-origin: 297.473px 306.768px;" id="elis3ntbhfn19" class="animable"></path><path d="M282.2,274.56a2.83,2.83,0,0,0,1.45,4.86,1.31,1.31,0,0,0-.1,1.8,3.15,3.15,0,0,0,1.7.63c-.2.93.52,2.23,1.47,2.22-.23.23-.5.45-.31.72a.75.75,0,0,0,.88.24c.28-.13,3,.21,4.14.21A11.59,11.59,0,0,0,289,277,8.1,8.1,0,0,0,282.2,274.56Z" style="fill: rgb(38, 50, 56); transform-origin: 286.389px 279.872px;" id="elqlkm95frneg" class="animable"></path><path d="M283.16,276.7a7.18,7.18,0,0,0-.29-7.51,2.68,2.68,0,0,0-.78-.86,1.3,1.3,0,0,0-1.11-.21c-.69.22-.93,1.06-1.07,1.78l-.56,3a1.86,1.86,0,0,1-.64-1.55,8.3,8.3,0,0,0-.07-1.73,1.28,1.28,0,0,0-1.22-1,1.49,1.49,0,0,0-.89.55,4.88,4.88,0,0,0-1.26,2.7,11.17,11.17,0,0,1-.49-1.25,1.22,1.22,0,0,0-1-.8,1.36,1.36,0,0,0-.91.54,4.94,4.94,0,0,0-.88,4.91,1.76,1.76,0,0,0-.41-1.15,1,1,0,0,0-1.12-.34c-.73.32-.9,1.43-.93,1.69a4.13,4.13,0,0,0,4.07,4.52C277,279.94,279.81,277.05,283.16,276.7Z" style="fill: rgb(38, 50, 56); transform-origin: 276.796px 274.033px;" id="el8qb51g8o88u" class="animable"></path><path d="M280.21,411.67h6.07a.43.43,0,0,1,.42.34l1,4.45a.73.73,0,0,1-.57.87l-.16,0c-2,0-3.4-.15-5.86-.15-1.52,0-6.11.16-8.2.16s-2.37-2.08-1.52-2.27c3.86-.84,6.76-2,8-3.11A1.19,1.19,0,0,1,280.21,411.67Z" style="fill: rgb(38, 50, 56); transform-origin: 279.329px 414.505px;" id="elvy74jveuph" class="animable"></path><path d="M304.87,408.51l5.41-2.38a.42.42,0,0,1,.51.14l2.62,3.58a.71.71,0,0,1-.16,1l-.14.08c-1.76.74-3.08,1.19-5.28,2.16-1.35.59-5.37,2.53-7.24,3.35s-2.92-.92-2.23-1.42c3.1-2.26,5.23-4.43,5.89-5.9A1.23,1.23,0,0,1,304.87,408.51Z" style="fill: rgb(38, 50, 56); transform-origin: 305.848px 411.375px;" id="eliqb6q7gmi3" class="animable"></path></g><g id="freepik--character-3--inject-71" class="animable" style="transform-origin: 223.646px 356.562px;"><g id="freepik--group--inject-71" class="animable" style="transform-origin: 223.646px 356.562px;"><path d="M248.4,331.8l3.15-2a8.32,8.32,0,0,1,1.55-2c.64-.42,6.88.26,7,.94s-.5,3.84-1.58,4.13-6.24-.73-6.24-.73L249.15,334Z" style="fill: rgb(228, 137, 123); transform-origin: 254.257px 330.835px;" id="el68zxjldrhhe" class="animable"></path><path d="M234.34,327.34c2.87,2.88,4.9,5.75,6.14,6.06s9.55-3,9.55-3l1.52,2.91s-7.8,6-10.28,6.21-8.57-4.75-8.57-4.75Z" style="fill: rgb(0, 255, 136); transform-origin: 242.125px 333.433px;" id="elar5ehjkzj0e" class="animable"></path><g id="elea1x0dnhxo"><path d="M232.7,334.74l.46.37a40.09,40.09,0,0,0,4.79,3.24,7,7,0,0,0,3.32,1.14c2.48-.2,10.28-6.21,10.28-6.21L250,330.37s-8.3,3.34-9.54,3-3.27-3.18-6.14-6.06Z" style="fill: rgb(255, 255, 255); isolation: isolate; opacity: 0.4; transform-origin: 242.125px 333.4px;" class="animable"></path></g><g id="el0sfrlpv6tjs"><path d="M233.16,335.11a40.09,40.09,0,0,0,4.79,3.24,10.52,10.52,0,0,0-4.22-5.43A3.39,3.39,0,0,0,233.16,335.11Z" style="isolation: isolate; opacity: 0.2; transform-origin: 235.549px 335.635px;" class="animable"></path></g><path d="M205.74,411.52l4.57,1.16s6.58-11.07,10.51-28.79a120.33,120.33,0,0,0,2.2-13.43l-8.57-2.16a83,83,0,0,1-.55,15.81A85.17,85.17,0,0,1,205.74,411.52Z" style="fill: rgb(228, 137, 123); transform-origin: 214.38px 390.49px;" id="eljbgkctira8m" class="animable"></path><path d="M240,381.93A92.42,92.42,0,0,1,244.58,411l4.3-.82s1-12.94-3-30.86c-.9-4-2.06-8.3-3.53-12.74l-8.05,1.54A88.61,88.61,0,0,1,240,381.93Z" style="fill: rgb(228, 137, 123); transform-origin: 241.646px 388.79px;" id="elbvv5e3qtmx4" class="animable"></path><g id="elt5v1feqnw8e"><path d="M242.37,366.57l-8.05,1.54A88.61,88.61,0,0,1,240,381.93c2.21-.9,4.19-1.8,5.87-2.62C245,375.29,243.84,371,242.37,366.57Z" style="isolation: isolate; opacity: 0.2; transform-origin: 240.095px 374.25px;" class="animable"></path></g><g id="el0xw5nyov4yq8"><path d="M213.9,384.11a68.31,68.31,0,0,0,6.92-.22,120.33,120.33,0,0,0,2.2-13.43l-8.57-2.16A83,83,0,0,1,213.9,384.11Z" style="isolation: isolate; opacity: 0.2; transform-origin: 218.46px 376.211px;" class="animable"></path></g><path d="M249.09,406.81l-5,1.9a.35.35,0,0,0-.22.43h0l1.25,4.08a.86.86,0,0,0,1.08.5c1.75-.69,2.55-1.11,4.75-2a44.33,44.33,0,0,0,5.83-2.41c1.75-1,.72-2.69-.11-2.42a13.22,13.22,0,0,1-6.69-.15A1.36,1.36,0,0,0,249.09,406.81Z" style="fill: rgb(38, 50, 56); transform-origin: 250.796px 410.231px;" id="eljff9f5ix1c" class="animable"></path><path d="M251,407a6.06,6.06,0,0,1-1.26.29.1.1,0,0,1-.11,0,.15.15,0,0,1,0-.13c.11-.15,1.05-1.49,1.68-1.49a.42.42,0,0,1,.36.21.62.62,0,0,1,.09.63A1.3,1.3,0,0,1,251,407Zm.32-1.14c-.34,0-.94.66-1.34,1.18.86-.14,1.44-.39,1.58-.67a.41.41,0,0,0-.07-.4.22.22,0,0,0-.17-.11Z" style="fill: rgb(0, 255, 136); transform-origin: 250.712px 406.488px;" id="ele3nju1hgd55" class="animable"></path><path d="M249.74,407.26l-.05,0a.1.1,0,0,1-.08-.06s-.61-1.3-.33-1.91a.58.58,0,0,1,.39-.31.43.43,0,0,1,.5.17,2.48,2.48,0,0,1-.38,2.07S249.76,407.26,249.74,407.26Zm-.06-2a.32.32,0,0,0-.19.17,2.48,2.48,0,0,0,.24,1.53,2.31,2.31,0,0,0,.26-1.64c0-.06-.1-.12-.26-.08Z" style="fill: rgb(0, 255, 136); transform-origin: 249.729px 406.108px;" id="elf71qxs04j4u" class="animable"></path><path d="M210.75,411.29l-5.38-.06a.35.35,0,0,0-.36.32h0l-.31,4.26a.84.84,0,0,0,.83.85c1.87,0,2.77-.1,5.13-.09a45.56,45.56,0,0,0,6.31-.11c2-.3,1.64-2.25.78-2.31a13.15,13.15,0,0,1-6.18-2.57A1.43,1.43,0,0,0,210.75,411.29Z" style="fill: rgb(38, 50, 56); transform-origin: 211.569px 413.945px;" id="el402helkupc3" class="animable"></path><path d="M212.44,412.13a6.19,6.19,0,0,1-1.28-.19s-.08,0-.08-.08a.13.13,0,0,1,0-.12c.16-.1,1.52-1,2.11-.78a.43.43,0,0,1,.25.32.61.61,0,0,1-.14.63A1.3,1.3,0,0,1,212.44,412.13Zm.71-.94c-.32-.12-1.12.27-1.68.61.86.18,1.49.16,1.72-.05a.44.44,0,0,0,.08-.4.22.22,0,0,0-.12-.16Z" style="fill: rgb(0, 255, 136); transform-origin: 212.27px 411.531px;" id="elpbpsu2znlt" class="animable"></path><path d="M211.19,411.94h-.05a.11.11,0,0,1-.06-.09s-.09-1.43.39-1.9a.65.65,0,0,1,.48-.15.43.43,0,0,1,.4.35c.1.52-.62,1.51-1.1,1.79A.06.06,0,0,1,211.19,411.94Zm.68-1.89a.31.31,0,0,0-.24.1c-.3.27-.34,1.06-.33,1.51a2.36,2.36,0,0,0,.83-1.44c0-.07,0-.15-.21-.17Z" style="fill: rgb(0, 255, 136); transform-origin: 211.716px 410.873px;" id="elynok6kryhr" class="animable"></path><path d="M238.46,347.94c-1-3.12-5.3-13.52-4.12-20.6,0,0-2.47-3.23-11-4.4-8.16-1.1-12,.95-12,.95a124.18,124.18,0,0,0,.58,28.77.65.65,0,0,0,.75.53L238,348.75A.63.63,0,0,0,238.46,347.94Z" style="fill: rgb(0, 255, 136); transform-origin: 224.63px 337.907px;" id="eldqfj2goh7vb" class="animable"></path><g id="el1zzny8m2skd"><path d="M211.85,352.66a.63.63,0,0,0,.74.53L238,348.75a.63.63,0,0,0,.49-.81c-1-3.12-5.3-13.52-4.12-20.6,0,0-2.47-3.24-11-4.39-8.17-1.11-12.05.94-12.05.94a35.64,35.64,0,0,0-.29,4c-.11,2-.2,4.42-.23,7.07A111.33,111.33,0,0,0,211.85,352.66Z" style="fill: rgb(255, 255, 255); isolation: isolate; opacity: 0.4; transform-origin: 224.648px 337.911px;" class="animable"></path></g><path d="M217.62,323.24s3.71,3.18,7,3.14c2.57,0,2.12-2.19,2.12-2.19a4.57,4.57,0,0,1-.76-1.13c-1.3-2.71,1.28-5.16,1.28-5.16l-2.77-1-6.1-2.12C220.79,320,217.62,323.24,217.62,323.24Z" style="fill: rgb(228, 137, 123); transform-origin: 222.44px 320.58px;" id="elun4p7ww2t2" class="animable"></path><g id="elialjcx0s5sl"><path d="M219.28,317.06s2.54,5.63,6.69,6c-1.3-2.71,1.28-5.16,1.28-5.16l-2.77-1Z" style="isolation: isolate; opacity: 0.2; transform-origin: 223.265px 319.98px;" class="animable"></path></g><path d="M230.5,298.66c5.52.62,6.23,4.16,5.38,7.35s.49,2.87,3.1,4.19.23,2.69-.48,4.41,3.9,1,1.85,4.53c0,0-1.72-1.37-2.93-.41a6.42,6.42,0,0,1-7.81.52c-3.65-2.27-6.36-.6-6.36-.6S224.67,298,230.5,298.66Z" style="fill: rgb(38, 50, 56); transform-origin: 232.065px 309.488px;" id="elpotv19cl72n" class="animable"></path><path d="M229.55,299s7.32,4.91.38,11.68C222.1,318.28,229.55,299,229.55,299Z" style="fill: rgb(38, 50, 56); transform-origin: 229.634px 305.727px;" id="el7x6q2q4rzn8" class="animable"></path><path d="M214,309.78c.89,5.19,4.4,10.69,8.82,11.05,8.09.65,11-1.18,11.35-7.16.29-5.39-2.42-13.61-9.14-14.51S212.81,302.59,214,309.78Z" style="fill: rgb(228, 137, 123); transform-origin: 224.014px 309.998px;" id="elfcgbbblmtk4" class="animable"></path><path d="M230.68,302.35a14.43,14.43,0,0,1-7.66,1.22s-5.44,2.84-4.4,6.35-.61,3.87-.3,8.62c0,0-5-.11-6.79-10.42-1.3-7.52,5-11.09,11.74-11.62C228.93,296.06,233.32,299.73,230.68,302.35Z" style="fill: rgb(38, 50, 56); transform-origin: 221.413px 307.502px;" id="elgihr7nnviyt" class="animable"></path><path d="M226.13,310.12c.09.66.51,1.15,1,1.09s.7-.65.61-1.31-.51-1.15-.95-1.09S226,309.46,226.13,310.12Z" style="fill: rgb(38, 50, 56); transform-origin: 226.931px 310.01px;" id="el8w7pao2s9d7" class="animable"></path><path d="M231.38,309.13c.09.63.5,1.1.91,1s.68-.62.59-1.25-.5-1.1-.91-1.05S231.29,308.49,231.38,309.13Z" style="fill: rgb(38, 50, 56); transform-origin: 232.13px 308.985px;" id="elp1vghkxndpm" class="animable"></path><path d="M227.57,306.53a.34.34,0,0,0,.08-.17.3.3,0,0,0-.28-.31,3,3,0,0,0-2.53,1.08.29.29,0,0,0,.07.42h0a.32.32,0,0,0,.42-.06h0a2.38,2.38,0,0,1,2-.83A.32.32,0,0,0,227.57,306.53Z" style="fill: rgb(38, 50, 56); transform-origin: 226.215px 306.822px;" id="elaekih0wci5" class="animable"></path><path d="M232.74,306.09a.33.33,0,0,0,.15-.11.3.3,0,0,0-.1-.41,2.94,2.94,0,0,0-2.73-.25.29.29,0,0,0-.14.4h0a.32.32,0,0,0,.4.14h0a2.33,2.33,0,0,1,2.17.25A.36.36,0,0,0,232.74,306.09Z" style="fill: rgb(38, 50, 56); transform-origin: 231.41px 305.609px;" id="eln9c1tvo65ar" class="animable"></path><path d="M230.45,310l-.3,2.9a3.63,3.63,0,0,0,2.09-.4A8.67,8.67,0,0,1,230.45,310Z" style="fill: rgb(222, 87, 83); transform-origin: 231.195px 311.461px;" id="elpcc9nw68m2" class="animable"></path><path d="M220.24,312.38s-1.75-3.05-3.29-1.85-.59,6.51,1.87,6.23S221.56,314,220.24,312.38Z" style="fill: rgb(238, 193, 187); transform-origin: 218.612px 313.511px;" id="eli2cyyoqjukj" class="animable"></path><path d="M230.54,315.2a17.24,17.24,0,0,0-1.09,2.17l-.41-.1c-1.88-.46-2.6-1.29-2.83-2.08a2.5,2.5,0,0,1,0-1.18,2.62,2.62,0,0,1,.22-.64,9.05,9.05,0,0,0,3.5,1.66C230.29,315.15,230.54,315.2,230.54,315.2Z" style="fill: rgb(38, 50, 56); transform-origin: 228.34px 315.37px;" id="el1vf2e47lq38" class="animable"></path><path d="M229.9,315l-.34.63c-1.77-.43-2.95-1-3.38-1.65a2.62,2.62,0,0,1,.22-.64A9.05,9.05,0,0,0,229.9,315Z" style="fill: rgb(255, 255, 255); transform-origin: 228.04px 314.485px;" id="el5zoqt2cpqw9" class="animable"></path><path d="M229,317.27c-1.88-.46-2.6-1.29-2.83-2.08a6.36,6.36,0,0,1,2,.92A2.46,2.46,0,0,1,229,317.27Z" style="fill: rgb(222, 87, 83); transform-origin: 227.585px 316.23px;" id="el1v9qyqge9oz" class="animable"></path><path d="M227.24,303.42c-.07,1.41-2.13,3.41-4.06,3.69s-4.34,2.07-2.19,4.7,1.85,3.81-.57,5.07,1.58,3.6,1,5.47a3.05,3.05,0,0,0-3,.15,3.09,3.09,0,0,1-4.43-.63,1.92,1.92,0,0,0-2.58-.66,13.88,13.88,0,0,1,3.12-10.91c4.27-4.87,2.54-6.86,7.59-8.54S227.24,303.42,227.24,303.42Z" style="fill: rgb(38, 50, 56); transform-origin: 219.255px 312.226px;" id="elo8yexm2i2zm" class="animable"></path><g id="elgux2bfrwnc4"><path d="M210.74,335c2.78-1.93,2.18-7.61,2.18-7.61-1,.74-2,1.32-2,1.33C210.82,330.69,210.77,332.3,210.74,335Z" style="isolation: isolate; opacity: 0.2; transform-origin: 211.857px 331.195px;" class="animable"></path></g><path d="M197.41,341l-2.2,3a8.37,8.37,0,0,1-.69,2.43c-.44.62-6.48,2.31-6.8,1.71s-1-3.75-.08-4.43,6.07-1.63,6.07-1.63l2.17-2.87Z" style="fill: rgb(228, 137, 123); transform-origin: 192.293px 343.738px;" id="elzzryav2klvf" class="animable"></path><path d="M211.26,323.89c-6,4.4-17.45,17.16-17.45,17.16l3.12,1.68s9.56-9.16,17-13.57Z" style="fill: rgb(0, 255, 136); transform-origin: 203.87px 333.31px;" id="elsyqu2cj6ta8" class="animable"></path><g id="el26zn3ypxhgf"><path d="M211.26,323.89c-6,4.4-17.45,17.16-17.45,17.16l3.12,1.68s9.56-9.16,17-13.57Z" style="fill: rgb(255, 255, 255); isolation: isolate; opacity: 0.4; transform-origin: 203.87px 333.31px;" class="animable"></path></g><path d="M238.34,348.35c3.39,3.3,8.69,17.32,9.56,27.82,0,0-3.63,3.18-16.91,5.09a67,67,0,0,1-18.42.37c.27-8.64-1.34-28.06-.18-29.21Z" style="fill: rgb(0, 255, 136); transform-origin: 229.932px 365.222px;" id="elul21o0qh229" class="animable"></path><g id="eleatf9h4nuxk"><path d="M212.57,381.62s1.11.18,3.08.31c.94.07,2.07.12,3.38.13,1.16,0,2.47,0,3.89-.05,1,0,2-.1,3.11-.19,1.55-.12,3.22-.3,5-.55l1.38-.22c.83-.13,1.63-.26,2.38-.41,1.84-.34,3.44-.7,4.82-1.07,1.1-.28,2.06-.57,2.91-.86a29.47,29.47,0,0,0,3-1.18c.42-.19.77-.37,1.08-.54a7.83,7.83,0,0,0,1.31-.82c-.87-10.5-6.17-24.51-9.56-27.82l-26,4.08C211.23,353.57,212.84,373,212.57,381.62Z" style="isolation: isolate; opacity: 0.2; transform-origin: 229.929px 365.205px;" class="animable"></path></g><g id="ellwu0ah3nzj"><path d="M242.12,362.19l3.39,15.34c.42-.19.77-.37,1.08-.54Z" style="isolation: isolate; opacity: 0.2; transform-origin: 244.355px 369.86px;" class="animable"></path></g><g id="el4mt2787zarg"><path d="M242.48,378.71l-7.39-22.13,4.48,23C240.67,379.29,241.63,379,242.48,378.71Z" style="isolation: isolate; opacity: 0.2; transform-origin: 238.785px 368.08px;" class="animable"></path></g><g id="elt1kd0w7zf19"><path d="M234.75,380.64l-5.56-23.17,3.18,23.58C233.2,380.92,234,380.79,234.75,380.64Z" style="isolation: isolate; opacity: 0.2; transform-origin: 231.97px 369.26px;" class="animable"></path></g><g id="elmn6amjr6h1"><path d="M226,381.82l-4.22-23.56L222.92,382C223.9,382,224.94,381.91,226,381.82Z" style="isolation: isolate; opacity: 0.2; transform-origin: 223.89px 370.13px;" class="animable"></path></g><g id="el1qnt9soalcx"><path d="M215.65,381.93c.94.07,2.07.12,3.38.13l-2.81-22.91Z" style="isolation: isolate; opacity: 0.2; transform-origin: 217.34px 370.605px;" class="animable"></path></g></g></g><g id="freepik--character-2--inject-71" class="animable" style="transform-origin: 194.666px 359.316px;"><path d="M225.55,327l2.76-4.11,2.91,5a6.62,6.62,0,0,1-5.66,1.21Z" style="fill: rgb(235, 179, 118); transform-origin: 228.385px 326.091px;" id="eljhlad7vc67o" class="animable"></path><polygon points="232.96 321.44 234.43 325.56 231.22 327.92 228.31 322.91 232.96 321.44" style="fill: rgb(235, 179, 118); transform-origin: 231.37px 324.68px;" id="elo01m8ettbo" class="animable"></polygon><path d="M201.62,330.21c4.82-.32,11-.78,12.32-1.1l11.9-2.44.54,2.62-12.07,4.17c-1.09.5-7.23,1.72-11.78,2.63Z" style="fill: rgb(233, 179, 118); transform-origin: 214px 331.38px;" id="elpafsxhe4tl" class="animable"></path><path d="M190.91,333.72c.85,5.57,4.72,5.26,14.58,3.95l-.73-10.13a48.36,48.36,0,0,1-7.17,1.14C192.57,329.17,190.66,330.9,190.91,333.72Z" style="fill: rgb(0, 255, 136); isolation: isolate; transform-origin: 198.189px 333.004px;" id="elnojfbiccso" class="animable"></path><g id="elthjamv7onif"><path d="M190.91,333.72c.85,5.57,4.72,5.26,14.58,3.95l-.73-10.13a48.36,48.36,0,0,1-7.17,1.14C192.57,329.17,190.66,330.9,190.91,333.72Z" style="fill: rgb(255, 255, 255); isolation: isolate; opacity: 0.6; transform-origin: 198.189px 333.004px;" class="animable"></path></g><path d="M195.65,308.56a3.28,3.28,0,0,0,1,2.39c.68.73.14,1.53.73,2.13s.2,1.47.62,2.14.06,1.46.5,2,0,1.26.35,1.77-.06,1.37.29,1.94c.56.9-.33,1.72.28,2.88,0,0,.62-1.3-20.36.52,0,0-3.84-14.92,4-17S195.65,308.56,195.65,308.56Z" style="fill: rgb(38, 50, 56); transform-origin: 188.771px 315.487px;" id="elmu0pxw97l7h" class="animable"></path><path d="M195.79,376.55C179,394,161.2,399.87,161.2,399.87l-3-4a74.14,74.14,0,0,0,32-26.82Z" style="fill: rgb(235, 179, 118); transform-origin: 176.995px 384.46px;" id="el3y0uor1pcwj" class="animable"></path><path d="M202.79,372.22c1.85,24.15-5.53,41.35-5.53,41.35l-5-.41a74.15,74.15,0,0,0,1.16-41.71Z" style="fill: rgb(235, 179, 118); transform-origin: 197.674px 392.51px;" id="elfw5tb1hde6" class="animable"></path><path d="M197.81,411.43l-5.08-.31a.31.31,0,0,0-.35.28h0l-.5,4a.8.8,0,0,0,.74.85c1.77.08,2.62,0,4.86.15a41.26,41.26,0,0,0,6,.19c1.89-.18,1.66-2.05.85-2.13a12.47,12.47,0,0,1-5.72-2.73A1.32,1.32,0,0,0,197.81,411.43Z" style="fill: rgb(38, 50, 56); transform-origin: 198.405px 413.871px;" id="elt31v173ae2c" class="animable"></path><path d="M199.37,412.3a4.91,4.91,0,0,1-1.2-.24s-.07,0-.08-.08a.16.16,0,0,1,0-.11c.15-.09,1.49-.88,2-.63a.39.39,0,0,1,.22.31.55.55,0,0,1-.16.58A1.15,1.15,0,0,1,199.37,412.3Zm.71-.85c-.29-.13-1.06.2-1.61.5.8.21,1.39.22,1.62,0a.38.38,0,0,0,.1-.37.21.21,0,0,0-.11-.15Z" style="fill: rgb(0, 255, 136); transform-origin: 199.208px 411.751px;" id="elzbh8erxee8b" class="animable"></path><path d="M198.19,412.07h0a.16.16,0,0,1-.06-.08s0-1.37.46-1.78a.55.55,0,0,1,.46-.12.41.41,0,0,1,.37.34c.07.5-.66,1.41-1.13,1.64Zm.73-1.76a.3.3,0,0,0-.23.08,2.38,2.38,0,0,0-.38,1.41,2.25,2.25,0,0,0,.86-1.32c0-.06,0-.14-.19-.16Z" style="fill: rgb(0, 255, 136); transform-origin: 198.777px 411.075px;" id="elp2ly2qnsztd" class="animable"></path><path d="M162.22,399l-3.91-3.25a.33.33,0,0,0-.46,0h0l-2.76,2.94a.79.79,0,0,0,.1,1.12c1.38,1.11,2.1,1.57,3.83,3a41.52,41.52,0,0,0,4.71,3.66c1.63,1,2.54-.67,1.94-1.23a12.52,12.52,0,0,1-3-5.56A1.23,1.23,0,0,0,162.22,399Z" style="fill: rgb(38, 50, 56); transform-origin: 160.379px 401.22px;" id="el9j6knbwqlj9" class="animable"></path><path d="M163,400.57a5.44,5.44,0,0,1-.83-.9.09.09,0,0,1,0-.11.11.11,0,0,1,.1-.06c.17,0,1.72.16,2,.68a.39.39,0,0,1,0,.39.58.58,0,0,1-.48.37A1.2,1.2,0,0,1,163,400.57Zm1.08-.27c-.16-.28-1-.47-1.6-.55.52.64,1,1,1.29,1a.37.37,0,0,0,.3-.24.19.19,0,0,0,0-.19Z" style="fill: rgb(0, 255, 136); transform-origin: 163.237px 400.22px;" id="elqn6qbwyiou" class="animable"></path><path d="M162.15,399.69l0,0a.12.12,0,0,1,0-.1s.79-1.11,1.42-1.16a.55.55,0,0,1,.44.17.42.42,0,0,1,.1.49,2.36,2.36,0,0,1-1.88.67Zm1.63-1a.28.28,0,0,0-.23-.07c-.38,0-.88.58-1.14.91a2.23,2.23,0,0,0,1.47-.56c0-.06.05-.14-.06-.25Z" style="fill: rgb(0, 255, 136); transform-origin: 163.144px 399.099px;" id="eld5gjlhgi8qj" class="animable"></path><path d="M199.66,352.64s-4.09-15.81-2.52-23.42c0,0-2.7-2.39-10.87-2.21s-11.9,2.31-11.9,2.31a149,149,0,0,0,.68,26.6Z" style="fill: rgb(0, 255, 136); transform-origin: 186.863px 341.46px;" id="elqgbwx6ltws" class="animable"></path><g id="el53iy0q1nknf"><path d="M199.66,352.64s-4.09-15.81-2.52-23.42c0,0-2.7-2.39-10.87-2.21s-11.9,2.31-11.9,2.31a149,149,0,0,0,.68,26.6Z" style="fill: rgb(255, 255, 255); isolation: isolate; opacity: 0.7; transform-origin: 186.863px 341.46px;" class="animable"></path></g><g id="elxr1jjl9nxs"><path d="M193.49,334.44s-.18-7.51-9-7c-8.63.54-3.22,7.88-3.22,7.88l2.06-2.77,6.16,1.8,1.94-1.69Z" style="isolation: isolate; opacity: 0.2; transform-origin: 186.543px 331.368px;" class="animable"></path></g><path d="M193.74,332.45s-2-7-9.58-6.46-4.13,7.89-4.13,7.89l2.79-2.61,6.72,2.68,2-2.59Z" style="fill: rgb(0, 255, 136); transform-origin: 186.493px 329.955px;" id="elqqvhy0hlcma" class="animable"></path><g id="elidybct9aiqq"><path d="M193.74,332.45s-2-7-9.58-6.46-4.13,7.89-4.13,7.89l2.79-2.61,6.72,2.68,2-2.59Z" style="fill: rgb(255, 255, 255); isolation: isolate; opacity: 0.6; transform-origin: 186.493px 329.955px;" class="animable"></path></g><path d="M181.06,328.85l7.2,2.75,1.89-2.55a5.08,5.08,0,0,1-1-1c-1.78-2.53.28-5.11.28-5.11l-2.89-.72-6.37-1.58C183.55,325.46,181.06,328.85,181.06,328.85Z" style="fill: rgb(235, 179, 118); transform-origin: 185.16px 326.12px;" id="elyfpj2oer8p" class="animable"></path><g id="elpz5s41dx6gi"><path d="M181.51,322.71s3.55,5.27,7.68,5.3c-1.78-2.53.28-5.11.28-5.11l-2.89-.72Z" style="isolation: isolate; opacity: 0.2; transform-origin: 185.49px 325.095px;" class="animable"></path></g><path d="M193.43,305.19s6.2,5.57-1.2,11C183.87,322.29,193.43,305.19,193.43,305.19Z" style="fill: rgb(38, 50, 56); transform-origin: 192.332px 311.348px;" id="el28x0j4zta27" class="animable"></path><path d="M177.46,313.26c.14,5,2.7,10.6,6.78,11.52,7.49,1.7,10.51.38,11.58-5.19,1-5-.44-13.06-6.62-14.81S177.27,306.35,177.46,313.26Z" style="fill: rgb(235, 179, 118); transform-origin: 186.783px 314.896px;" id="el0ab67nhkbmpb" class="animable"></path><path d="M194,308.52a13.76,13.76,0,0,1-7.34.12,3,3,0,0,0-2.53,3.79c.5,3.43-3.53,5.11-3.88,9.6,0,0-4.67-.77-5-10.67-.22-7.21,6.15-9.72,12.55-9.31C193.24,302.39,196.85,306.42,194,308.52Z" style="fill: rgb(38, 50, 56); transform-origin: 185.122px 312.019px;" id="eldfc6dgd0xf" class="animable"></path><path d="M188.05,315.09c0,.63.33,1.15.75,1.15s.75-.51.75-1.14-.33-1.15-.74-1.15S188.06,314.46,188.05,315.09Z" style="fill: rgb(38, 50, 56); transform-origin: 188.8px 315.095px;" id="elqg5lroqpiq" class="animable"></path><path d="M193.79,315c0,.6.31,1.1.71,1.1s.71-.49.72-1.1-.32-1.09-.72-1.09S193.79,314.36,193.79,315Z" style="fill: rgb(38, 50, 56); transform-origin: 194.505px 315.005px;" id="elx57qd29xq7f" class="animable"></path><path d="M189.88,311.93a.33.33,0,0,0,.11-.15.3.3,0,0,0-.23-.33,2.78,2.78,0,0,0-2.51.68.28.28,0,0,0,0,.4h0a.29.29,0,0,0,.4,0h0a2.26,2.26,0,0,1,2-.5A.27.27,0,0,0,189.88,311.93Z" style="fill: rgb(38, 50, 56); transform-origin: 188.579px 311.996px;" id="eltgbj7emusvp" class="animable"></path><path d="M195.46,312.3a.3.3,0,0,0,.16-.08.29.29,0,0,0,0-.4,2.75,2.75,0,0,0-2.52-.6.27.27,0,0,0-.19.35h0a.3.3,0,0,0,.36.19h0a2.22,2.22,0,0,1,2,.52A.31.31,0,0,0,195.46,312.3Z" style="fill: rgb(38, 50, 56); transform-origin: 194.298px 311.718px;" id="el6gdmw4zpa05" class="animable"></path><path d="M192.48,315.78l-.15,2.38a3.94,3.94,0,0,0,1.93-.57A6.24,6.24,0,0,1,192.48,315.78Z" style="fill: rgb(213, 135, 69); transform-origin: 193.295px 316.97px;" id="el8ym9j6ufob5" class="animable"></path><path d="M182.92,316.52s-1.23-3.09-2.83-2.17-1.42,6,.92,6.08S183.94,318.18,182.92,316.52Z" style="fill: rgb(235, 179, 118); transform-origin: 181.222px 317.305px;" id="el3zm9cb4ohdk" class="animable"></path><path d="M177.83,325.85c-.17-.46-.73-1-.52-1.48.34-.8-.43-1.4-.45-1.8a2,2,0,0,0-.33,1.75,7.22,7.22,0,0,1-.07,1.44,15,15,0,0,1-3.24-.67,4,4,0,0,1-.22-3.67c.38-.87-.65-2.54,0-3.51a2.67,2.67,0,0,0,.17-2.5c-.53-1.08.71-1.81.4-2.91-.25-.87.71-1.71.62-2.56a2.11,2.11,0,0,1,.83-2.13c1.44-1.22,2-3,3.58-3.61,7.37-2.83,11.82-1.68,11.82-1.68s4.77.78,5.13,3.19c.1.71,1.39,1.21,1.2,2.12-.27,1.27.8,1.71.76,2.45a25.86,25.86,0,0,0-8,.26L188.36,309l.13,2.16-6.19,1.49a4.61,4.61,0,0,1-1.3,1.93c-.43.43-.3,1.07-.51,1.69s.24,1.69-.23,2.55c-.33.59.52,1.55.16,2.33s.53,1.46.47,2.49a3,3,0,0,0,.57,2.06A21.6,21.6,0,0,1,177.83,325.85Z" style="fill: rgb(38, 50, 56); transform-origin: 185.084px 314.079px;" id="eldk7d9wy5i6c" class="animable"></path><path d="M188.53,314.26l1.17-.69S189.36,314.74,188.53,314.26Z" style="fill: rgb(38, 50, 56); transform-origin: 189.115px 313.973px;" id="elpkx4aj6ji0a" class="animable"></path><path d="M194.2,314.12l1.17-.68S195,314.61,194.2,314.12Z" style="fill: rgb(38, 50, 56); transform-origin: 194.785px 313.84px;" id="el9o27hg2v14" class="animable"></path><path d="M193.4,319.32a19,19,0,0,0-.83,2.75l-.5,0c-2.29-.16-3.3-1-3.73-1.86a3,3,0,0,1-.27-1.37,2.85,2.85,0,0,1,.12-.79,11,11,0,0,0,4.43,1.23C193.09,319.31,193.4,319.32,193.4,319.32Z" style="fill: rgb(38, 50, 56); transform-origin: 190.734px 320.06px;" id="el76f93hlhy6w" class="animable"></path><path d="M192.62,319.25l-.27.81c-2.15-.16-3.65-.55-4.28-1.25a2.85,2.85,0,0,1,.12-.79A11,11,0,0,0,192.62,319.25Z" style="fill: rgb(255, 255, 255); transform-origin: 190.345px 319.04px;" id="el6hk75s1617e" class="animable"></path><path d="M192.07,322c-2.29-.16-3.3-1-3.73-1.86a7.25,7.25,0,0,1,2.51.68A2.79,2.79,0,0,1,192.07,322Z" style="fill: rgb(222, 87, 83); transform-origin: 190.205px 321.07px;" id="elxy41thf19od" class="animable"></path><polygon points="199.12 350.35 199.66 352.64 174.99 355.55 174.79 353.6 199.12 350.35" id="el5n4kicijey4" class="animable" style="transform-origin: 187.225px 352.95px;"></polygon><path d="M199.66,352.64c3.09,3.25,7.59,16.69,8,26.65,0,0-3.55,2.87-16.17,4.2a63.48,63.48,0,0,1-17.43-.33c.57-8.15-.24-26.57.9-27.61Z" style="fill: rgb(38, 50, 56); transform-origin: 190.86px 368.289px;" id="elcc6x777wi1" class="animable"></path><path d="M194.2,351.5l.2,1.16a.5.5,0,0,1-.42.59l-3.21.44s-.2-1-.32-1.65a.51.51,0,0,1,.44-.59l2.74-.37A.52.52,0,0,1,194.2,351.5Z" style="fill: rgb(255, 255, 255); transform-origin: 192.426px 352.383px;" id="el854dbh3rlkp" class="animable"></path><polygon points="184.76 352.27 185.04 354.87 184.08 354.96 183.81 352.38 184.76 352.27" style="fill: rgb(38, 50, 56); transform-origin: 184.425px 353.615px;" id="el0pu28wy35sb" class="animable"></polygon><polygon points="196.6 350.68 197.08 353.23 198 353.13 197.49 350.52 196.6 350.68" style="fill: rgb(38, 50, 56); transform-origin: 197.3px 351.875px;" id="elnzk5lvbvacc" class="animable"></polygon><path d="M205.36,341.64l4.25-2.56.51,5.78a6.65,6.65,0,0,1-5.64-1.31Z" style="fill: rgb(235, 179, 118); transform-origin: 207.3px 342.052px;" id="elhdsjayrlsdf" class="animable"></path><polygon points="214.44 339.72 214.03 344.08 210.12 344.86 209.61 339.08 214.44 339.72" style="fill: rgb(235, 179, 118); transform-origin: 212.025px 341.97px;" id="el1wsi4kwfbcu" class="animable"></polygon><path d="M182.34,334.38c4.5,1.75,10.29,3.95,11.62,4.22l11.82,2.84-.62,2.6-12.71-1.34c-1.2,0-7.27-1.51-11.77-2.61Z" style="fill: rgb(233, 179, 118); transform-origin: 193.23px 339.21px;" id="elhi17qvcjoh" class="animable"></path><path d="M171.16,333c-1.61,5.4,2,6.77,11.52,9.76l3.63-9.49a46.57,46.57,0,0,1-7-2C174.59,329.6,172.12,330.35,171.16,333Z" style="fill: rgb(0, 255, 136); isolation: isolate; transform-origin: 178.55px 336.572px;" id="el9xx07xoqei" class="animable"></path><g id="elgo00wbc0trk"><path d="M171.16,333c-1.61,5.4,2,6.77,11.52,9.76l3.63-9.49a46.57,46.57,0,0,1-7-2C174.59,329.6,172.12,330.35,171.16,333Z" style="fill: rgb(255, 255, 255); isolation: isolate; opacity: 0.6; transform-origin: 178.55px 336.572px;" class="animable"></path></g></g><g id="freepik--character-1--inject-71" class="animable" style="transform-origin: 139.89px 304.203px;"><polygon points="129.55 407.49 124.1 407.49 125.77 399.95 127.32 393.04 134.15 392 131.72 400.2 129.55 407.49" style="fill: rgb(235, 179, 118); transform-origin: 129.125px 399.745px;" id="elg92fnv1933u" class="animable"></polygon><g id="elscytjbm2kie"><polygon points="131.66 400.37 125.72 400.1 127.29 393.12 134.13 392.03 131.66 400.37" style="isolation: isolate; opacity: 0.2; transform-origin: 129.925px 396.2px;" class="animable"></polygon></g><polygon points="118.27 407.49 112.82 407.49 114.49 399.95 116.03 393.04 122.86 392 120.43 400.2 118.27 407.49" style="fill: rgb(235, 179, 118); transform-origin: 117.84px 399.745px;" id="elzsw0uyo8rfc" class="animable"></polygon><g id="el0zl497aij8zl"><polygon points="120.38 400.37 114.44 400.1 116.01 393.12 122.85 392.03 120.38 400.37" style="isolation: isolate; opacity: 0.2; transform-origin: 118.645px 396.2px;" class="animable"></polygon></g><path d="M122.57,407.25c0-.6,7.4-.13,7.4-.13s4.54,4.63,8.95,5.66,2,3.69-3,3.69h-12.2C120.23,416.47,122.42,413.48,122.57,407.25Z" style="fill: rgb(38, 50, 56); transform-origin: 131.492px 411.707px;" id="elmc92ofo0x3" class="animable"></path><path d="M130.79,408.08l-.06-.05h0a.09.09,0,0,1,0,0h0a.14.14,0,0,1,0-.06h0a.19.19,0,0,1,0-.08c0-.09.65-1.8,1.65-2.22a1.15,1.15,0,0,1,1,0c.33.16.5.37.48.62s-.55.78-1.15,1.1a3.09,3.09,0,0,1,1.66.18.77.77,0,0,1,.39.5.7.7,0,0,1-.18.79,1,1,0,0,1-.65.17A9.42,9.42,0,0,1,130.79,408.08Zm.68-.12c1.09.46,2.44.86,2.79.58,0,0,.12-.1.05-.39a.4.4,0,0,0-.22-.26,1.78,1.78,0,0,0-.87-.16A8.21,8.21,0,0,0,131.47,408Zm1-2a3.21,3.21,0,0,0-1.27,1.59c1.1-.41,2.15-1,2.17-1.32,0-.1-.16-.2-.26-.25a.88.88,0,0,0-.34-.08A.8.8,0,0,0,132.49,406Z" style="fill: rgb(0, 255, 136); transform-origin: 132.77px 407.295px;" id="elcr3s1f5kes" class="animable"></path><path d="M111.29,407.25c0-.6,7.39-.13,7.39-.13s4.55,4.63,9,5.66,2,3.69-3,3.69h-12.2C109,416.47,111.14,413.48,111.29,407.25Z" style="fill: rgb(38, 50, 56); transform-origin: 120.254px 411.707px;" id="elm8ljbss9nmb" class="animable"></path><path d="M119.51,408.08a.1.1,0,0,1-.06-.05h0a.1.1,0,0,1,0,0h0a.13.13,0,0,1,0-.06h0a.19.19,0,0,1,0-.08c0-.09.65-1.8,1.65-2.22a1.13,1.13,0,0,1,1,0c.34.16.5.37.49.62s-.55.78-1.15,1.1a3.06,3.06,0,0,1,1.65.18.79.79,0,0,1,.4.5.72.72,0,0,1-.18.79,1,1,0,0,1-.65.17A9.42,9.42,0,0,1,119.51,408.08Zm.67-.12c1.09.46,2.45.86,2.79.58,0,0,.13-.1,0-.39a.39.39,0,0,0-.21-.26,1.8,1.8,0,0,0-.87-.16A8.31,8.31,0,0,0,120.18,408Zm1-2a3.21,3.21,0,0,0-1.27,1.59c1.09-.41,2.15-1,2.17-1.32,0-.1-.16-.2-.26-.25a.88.88,0,0,0-.34-.08A.8.8,0,0,0,121.21,406Z" style="fill: rgb(0, 255, 136); transform-origin: 121.493px 407.294px;" id="elc5d7fcim82w" class="animable"></path><g id="elrd0p8m8yo2"><polygon points="126.92 394.6 125.4 397.79 124.48 397.65 125.4 394.1 126.92 394.6" style="opacity: 0.2; transform-origin: 125.7px 395.945px;" class="animable"></polygon></g><path d="M108.41,263.48s-.28.58-.72,1.67c-2,5.07-7.67,21.08-5.57,39.64,1.24,11,13.38,30.74,15.18,41.51,2.1,12.53-3.4,34.63-2,50.83l8.67.76,2.62-1.64,7.42-1.11s19.35-44,19-59.19c-.27-11.95-19-54.77-19-54.77l1.79-15.83" style="fill: rgb(38, 50, 56); transform-origin: 127.338px 330.685px;" id="elctv6hgrmqbo" class="animable"></path><g id="el167mezccj9x"><path d="M108.41,263.48s-.28.58-.72,1.67c-2,5.07-7.67,21.08-5.57,39.64,1.24,11,13.38,30.74,15.18,41.51,2.1,12.53-3.4,34.63-2,50.83l8.67.76,2.62-1.64,7.42-1.11s19.35-44,19-59.19c-.27-11.95-19-54.77-19-54.77l1.79-15.83" style="fill: rgb(255, 255, 255); opacity: 0.2; transform-origin: 127.338px 330.685px;" class="animable"></path></g><path d="M167.73,283.54l6.2.95-4.17,6s-3.85-1.82-4.44-5.84Z" style="fill: rgb(235, 179, 118); transform-origin: 169.625px 287.015px;" id="elhuyjgszl0q" class="animable"></path><polygon points="178.12 289.03 174.18 292.94 169.75 290.53 173.93 284.49 178.12 289.03" style="fill: rgb(235, 179, 118); transform-origin: 173.935px 288.715px;" id="elolmmins4q0c" class="animable"></polygon><polygon points="168.76 284.19 164.67 279.07 161.86 281.3 166.19 286.77 168.76 284.19" style="fill: rgb(235, 179, 118); transform-origin: 165.31px 282.92px;" id="elpsvnndohb0r" class="animable"></polygon><path d="M156.39,241c0-3.22-.08-5.11-4.63-6.23-2.44-.41-6,2-6.3,5.06.5,8.52-1.32,21.23,1.56,25.31l16.43,19.91,4.9-2.92-12.8-18.36C152.52,259,155.69,249.32,156.39,241Z" style="fill: rgb(0, 255, 136); transform-origin: 156.847px 259.887px;" id="elyye4sy1o3o" class="animable"></path><polygon points="109.99 259.92 108.71 263.59 134.5 270.41 136.01 266.06 109.99 259.92" id="el29hp6yy49iu" class="animable" style="transform-origin: 122.36px 265.165px;"></polygon><g id="el8r2fwt3lwyg"><rect x="116.58" y="260.94" width="1.32" height="6.73" style="fill: rgb(38, 50, 56); transform-origin: 117.24px 264.305px; transform: rotate(16.26deg);" class="animable"></rect></g><g id="elomfb7pdiz5m"><rect x="123.46" y="264.11" width="5.84" height="4.43" style="fill: rgb(255, 255, 255); transform-origin: 126.38px 266.325px; transform: rotate(14.07deg);" class="animable"></rect></g><g id="el7isjr5i3vbw"><rect x="132.52" y="264.59" width="1.32" height="6.73" style="fill: rgb(38, 50, 56); transform-origin: 133.18px 267.955px; transform: rotate(16.28deg);" class="animable"></rect></g><path d="M155.55,236.52c-1.12,1.46-2.16,2.83-3.12,4.14-3.76,5-6.44,8.6-8.49,11.47a60.29,60.29,0,0,0-6,9.93c-.67,1.41-1.33,2.95-2.06,4.77L110,259.91c4.88-18.12,9.07-27.63,11.15-32.36a1.11,1.11,0,0,0,.07-.16,6.56,6.56,0,0,1,7.69-3.65c1.86.51,4,1.14,6.06,1.82a86.2,86.2,0,0,1,10.95,5A80.7,80.7,0,0,1,155.55,236.52Z" style="fill: rgb(0, 255, 136); transform-origin: 132.775px 245.172px;" id="elccdhbcsza3" class="animable"></path><g id="elaiwhomnc2x4"><path d="M155.55,236.52c-1.12,1.46-2.16,2.83-3.12,4.14-3.76,5-6.44,8.6-8.49,11.47a60.29,60.29,0,0,0-6,9.93c-.67,1.41-1.33,2.95-2.06,4.77L110,259.91c4.88-18.12,9.07-27.63,11.15-32.36a1.11,1.11,0,0,0,.07-.16,6.56,6.56,0,0,1,7.69-3.65c1.86.51,4,1.14,6.06,1.82a86.2,86.2,0,0,1,10.95,5A80.7,80.7,0,0,1,155.55,236.52Z" style="opacity: 0.3; transform-origin: 132.775px 245.172px;" class="animable"></path></g><path d="M140.53,234.27c-5.37-3.72-5.82-7.08-5.82-7.08,5.44-1.55,5.5-9.09,5.5-9.09l6.25,4.89a23.79,23.79,0,0,0-1.78,2.77c-2.23,4.18-.36,5.21-.36,5.21C144.36,233.87,140.53,234.27,140.53,234.27Z" style="fill: rgb(235, 179, 118); transform-origin: 140.585px 226.185px;" id="el2jjo879hyj" class="animable"></path><g id="ellargcztzmjh"><path d="M146.46,223a23.79,23.79,0,0,0-1.78,2.77c-2.94-2.5-4.47-7.66-4.47-7.66Z" style="isolation: isolate; opacity: 0.2; transform-origin: 143.335px 221.94px;" class="animable"></path></g><path d="M148.82,232.9a9.21,9.21,0,0,1-2.49,1.3c-.33.12-.69.22-1.07.32-2.6.59-6.3.32-10-3.83-.22-.24-.44-.51-.67-.79a25.56,25.56,0,0,1-2.54-3.84,27.36,27.36,0,0,1,3.32.45c.33.05.66.13,1,.2.61.13,1.21.29,1.8.46a29.78,29.78,0,0,1,5.92,2.34c.75.44,1.51,1,2.2,1.43l.87.63C148.12,232.32,148.82,232.9,148.82,232.9Z" style="fill: rgb(235, 179, 118); transform-origin: 140.435px 230.407px;" id="eltv94sin1xqc" class="animable"></path><path d="M141.28,197c.19-.36.35-.78.56-1.22a3.14,3.14,0,0,1,2.67-1.91A11.13,11.13,0,0,0,146,194c.83-.09,1.45-.79,2.19-1.18a3.15,3.15,0,0,1,2.55-.13c1,.4,1.8,1.33,2.88,1.45a4.61,4.61,0,0,0,1.17-.07,5.11,5.11,0,0,1,2.2.12,2.48,2.48,0,0,1,1.62,1.41,6.21,6.21,0,0,0,.51,1.56c.62.85,2.08.62,2.75,1.43s.27,1.82.8,2.55c.24.33.62.53.86.85a2.1,2.1,0,0,1,.24,1.72c-.13.59-.38,1.15-.48,1.74-.22,1.36.41,2,1.07,3,.54.85,1.31,2.34.22,3.09-1.63,1.11-3.56,1.71-2.63,3.37s2.9,3.28,1.38,4.26-3.34.91-2.78,2.64.18,3.23-1.27,3.46c0,0,1.15-.71,0-2.2a2.94,2.94,0,0,1-.77-2.48,2.18,2.18,0,0,0-1.39,1.75,2.42,2.42,0,0,1-1.09,1.85s.21.18-.41-1.43a2.36,2.36,0,0,1,.25-2.51s-2,2.18-2.66,3-6.56-.07-7.45-1-5-2-4.18-4a1.72,1.72,0,0,0-.81,2,1.88,1.88,0,0,1-.84-1.82,7.12,7.12,0,0,0-.84-3.13s.76,2.35-.54,3.06a1.7,1.7,0,0,0-1,1.86s-1.06-1.62-.78-2.46,1.74-1.35,0-3.24-.67-2.34-.67-2.34a2.8,2.8,0,0,0-1.1,2.77c.43,1.65-1.72,2.59-1.72,2.59s1.67-1.21.8-2.38-1.07-2.95.08-3.63a1.93,1.93,0,0,0-1.78,1.52c-.53,1.58-1.54,1.6-1.54,1.6s1.11-1.2.64-1.9.09-2.6,1.06-3.15,2.2-2,1.64-3.51-.46-2.49,1-3,2.38-2.5,2.49-3.85c.07-.93,1.57-.93,2.23-1.13A2.07,2.07,0,0,0,141.28,197Z" style="fill: rgb(38, 50, 56); transform-origin: 147.986px 208.875px;" id="el5w056buau7j" class="animable"></path><path d="M140.29,193.24c-.43-.11-2.48-2.33-3-.72s-1.74.44-3.06,1.78c-.63.64-.2,1.65-1.36,2-1,.27-.84,2.44-1.5,2.34-2.48-.37-.73.82-1.08,1.19-.57.6-2.92.5-1.56,1.6.29.24-.51.52-.73.76a7.45,7.45,0,0,0-1.22,1.71c-.4,1-3.57,1.26-3.28.49-.15.21,1.19,2,2.32,1.85-1.35.93-4.26.41-4.26.41a11.23,11.23,0,0,0,3.29,1.58c.24.54-.13,1-.65,1.51,1.94,1,2.89.74,3.65.26-.14,1,.74,1.72,2,2.35.3-.72,0-1.89,1.48-2.22a8.15,8.15,0,0,0,2.48-1.62c3-3,6.32-6.15,7.48-9.83a11.22,11.22,0,0,1,.91-2.32,2.34,2.34,0,0,0,.21-2.29C141.85,193.08,140.7,193.34,140.29,193.24Z" style="fill: rgb(38, 50, 56); transform-origin: 132.088px 202.143px;" id="el7urkvvfibr5" class="animable"></path><path d="M142.12,199.07c-1,1.42-2.28,2.22-2.94,1.77s-.42-2,.54-3.39,2.28-2.22,2.94-1.77S143.08,197.64,142.12,199.07Z" style="fill: rgb(0, 255, 136); transform-origin: 140.92px 198.261px;" id="eliemc3ddii1q" class="animable"></path><path d="M144.06,216.83s-9.31-1.2-5.84-13.29,22.84-9.8,21,1.34S144.06,216.83,144.06,216.83Z" style="fill: rgb(38, 50, 56); transform-origin: 148.394px 206.138px;" id="elj3iq7h427kj" class="animable"></path><path d="M156.38,220.85a8,8,0,0,1-10.29,2.63,10.35,10.35,0,0,1-5.09-5.75,15.29,15.29,0,0,1-.69-2.32c-.75-3.58.31-6.46,2.15-12A9.07,9.07,0,0,1,158,200C163.12,205.49,160.09,215.61,156.38,220.85Z" style="fill: rgb(235, 179, 118); transform-origin: 150.391px 210.63px;" id="elddrl2xyjwdb" class="animable"></path><path d="M150.13,201.88c-5.76,2.48-1.62,11.28-8.36,7.17s1.46-12.3,6.78-12.24S150.13,201.88,150.13,201.88Z" style="fill: rgb(38, 50, 56); transform-origin: 145.317px 203.468px;" id="el5cp19mrh92b" class="animable"></path><path d="M148.53,196.89c-1.43,4.63-1.36,6.08,3,7a4.92,4.92,0,0,1,.87-3.21,4.71,4.71,0,0,0,.8,3.43,16.67,16.67,0,0,1,3.6.76,4.54,4.54,0,0,1,.82-1.89,4.3,4.3,0,0,0,.45,2.46,12.21,12.21,0,0,1,3,2.44C163.44,203.49,158.64,194.67,148.53,196.89Z" style="fill: rgb(38, 50, 56); transform-origin: 154.683px 202.209px;" id="el6wivbxa6b6f" class="animable"></path><path d="M151.47,209.92c-.21.56-.1,1.13.24,1.29s.79-.16,1-.72.11-1.13-.24-1.29S151.68,209.36,151.47,209.92Z" style="fill: rgb(38, 50, 56); transform-origin: 152.091px 210.205px;" id="elnatauvnu2ma" class="animable"></path><path d="M157.25,212.15c-.22.55-.11,1.13.23,1.29s.8-.16,1-.72.1-1.13-.24-1.29S157.46,211.59,157.25,212.15Z" style="fill: rgb(38, 50, 56); transform-origin: 157.859px 212.435px;" id="el60pdig3eo1l" class="animable"></path><path d="M158.09,211.39l1.4.2S158.45,212.33,158.09,211.39Z" style="fill: rgb(38, 50, 56); transform-origin: 158.79px 211.628px;" id="eliq3m5r4uq1" class="animable"></path><path d="M155.81,212.89a17.25,17.25,0,0,0,.53,4.42,2.39,2.39,0,0,1-2-.5Z" style="fill: rgb(213, 135, 69); transform-origin: 155.34px 215.124px;" id="elf9lepl7lp1" class="animable"></path><path d="M138.62,208.92a4.87,4.87,0,0,0,1.33,3.7c1.21,1.16,2.72-.12,3.15-2,.39-1.7.22-4.34-1.36-4.76S138.7,207.1,138.62,208.92Z" style="fill: rgb(235, 179, 118); transform-origin: 140.943px 209.428px;" id="el73cuu1j6hxb" class="animable"></path><path d="M151.34,206a.33.33,0,0,0,.26,0,2.56,2.56,0,0,1,2.39.34.33.33,0,0,0,.47-.05.39.39,0,0,0-.07-.51,3.17,3.17,0,0,0-3-.45.35.35,0,0,0-.2.44A.42.42,0,0,0,151.34,206Z" style="fill: rgb(38, 50, 56); transform-origin: 152.848px 205.777px;" id="elmwpw41qkjfc" class="animable"></path><path d="M161,210.63a.29.29,0,0,0,.24.05.35.35,0,0,0,.25-.42,3.62,3.62,0,0,0-1.94-2.57.31.31,0,0,0-.43.19.39.39,0,0,0,.2.47,2.89,2.89,0,0,1,1.52,2.05A.35.35,0,0,0,161,210.63Z" style="fill: rgb(38, 50, 56); transform-origin: 160.3px 209.174px;" id="eluogtaesr3kn" class="animable"></path><path d="M152.31,209.16l1.41.2S152.67,210.1,152.31,209.16Z" style="fill: rgb(38, 50, 56); transform-origin: 153.015px 209.398px;" id="elz307o85tp7m" class="animable"></path><path d="M153.31,218.62a23.24,23.24,0,0,0-2.58,2c-.15-.12-.31-.23-.45-.36-2-1.65-2.44-3.09-2.26-4.19a3.28,3.28,0,0,1,.65-1.46,3.13,3.13,0,0,1,.63-.66,12.41,12.41,0,0,0,3.33,4.07C153,218.41,153.31,218.62,153.31,218.62Z" style="fill: rgb(38, 50, 56); transform-origin: 150.647px 217.285px;" id="eljawkht9nw8a" class="animable"></path><path d="M152.63,218.05l-.78.58c-1.92-1.56-3-2.92-3.18-4a3.13,3.13,0,0,1,.63-.66A12.41,12.41,0,0,0,152.63,218.05Z" style="fill: rgb(255, 255, 255); transform-origin: 150.65px 216.3px;" id="el4n2d9no9l3d" class="animable"></path><path d="M150.28,220.29c-2-1.65-2.44-3.09-2.26-4.19a8.45,8.45,0,0,1,1.89,2.29A3.2,3.2,0,0,1,150.28,220.29Z" style="fill: rgb(213, 135, 69); transform-origin: 149.142px 218.195px;" id="elus9ggvd77h" class="animable"></path><path d="M151.52,213.68c-1.38-.54-2-2.39-1.28-4.14s2.35-2.73,3.72-2.2,1.95,2.38,1.28,4.13S152.89,214.21,151.52,213.68Zm2.26-5.88c-1.12-.44-2.5.43-3.08,1.92s-.13,3.06,1,3.5,2.51-.43,3.09-1.93S154.91,208.23,153.78,207.8Z" style="fill: rgb(38, 50, 56); transform-origin: 152.728px 210.51px;" id="el2ejvwdxlkah" class="animable"></path><path d="M157.65,216c-1.37-.53-2-2.38-1.27-4.13s2.34-2.74,3.72-2.21,1.94,2.39,1.27,4.13S159,216.57,157.65,216Zm2.27-5.88c-1.12-.43-2.51.43-3.08,1.93s-.13,3.06,1,3.49,2.5-.43,3.08-1.92S161,210.59,159.92,210.16Z" style="fill: rgb(38, 50, 56); transform-origin: 158.863px 212.837px;" id="elz4vsjz0glw" class="animable"></path><path d="M155.12,211.6l-.23-.44a1.76,1.76,0,0,1,1.33-.13,1.17,1.17,0,0,1,.63.92l-.48.1a.72.72,0,0,0-.36-.57A1.17,1.17,0,0,0,155.12,211.6Z" style="fill: rgb(38, 50, 56); transform-origin: 155.87px 211.503px;" id="elfwjufnaang" class="animable"></path><g id="el16iknaucox6"><rect x="146.97" y="204.89" width="0.49" height="6.97" style="fill: rgb(38, 50, 56); transform-origin: 147.215px 208.375px; transform: rotate(-68.91deg);" class="animable"></rect></g><path d="M144,273.45l6.12,1.4-4.6,5.72s-3.71-2.1-4-6.15Z" style="fill: rgb(235, 179, 118); transform-origin: 145.82px 277.01px;" id="elmc93zaqlwm8" class="animable"></path><polygon points="154.01 279.68 149.8 283.29 145.56 280.57 150.16 274.85 154.01 279.68" style="fill: rgb(235, 179, 118); transform-origin: 149.785px 279.07px;" id="elhwmm95gyc6m" class="animable"></polygon><polygon points="141.41 267.87 146.27 273.95 142.65 276.94 137.74 270.68 141.41 267.87" style="fill: rgb(235, 179, 118); transform-origin: 142.005px 272.405px;" id="el0hwocp528v7" class="animable"></polygon><path d="M131.39,228.8a5.52,5.52,0,0,0-7.17-4.71c-2.87,1-4.32,4.85-4.19,8.77-.58,10,3.3,22.13,5.6,25.54l14.47,17.81,5.28-4.77-12.16-18.25C131.48,249.41,131.72,238.05,131.39,228.8Z" style="fill: rgb(0, 255, 136); transform-origin: 132.676px 250.019px;" id="el0pocfd87cr6" class="animable"></path><g id="eltylj6kxozx9"><path d="M128,396.05l-1.36.2-2.23,1.4c1.42-4.94,13.64-47.71,13.86-57.13.24-10-14-45.49-14-45.49l3.66-6.59-.55,10s13.46,27.6,14.53,42C142.89,354.38,129.09,392.93,128,396.05Z" style="isolation: isolate; opacity: 0.2; transform-origin: 133.115px 343.045px;" class="animable"></path></g><polygon points="125.56 393.49 136.79 395.16 134.53 399.25 124.48 397.65 125.56 393.49" style="fill: rgb(38, 50, 56); transform-origin: 130.635px 396.37px;" id="el6ogyawi40au" class="animable"></polygon><polygon points="112.83 393.69 125.97 394.74 123.95 398.98 113.14 398 112.83 393.69" style="fill: rgb(38, 50, 56); transform-origin: 119.4px 396.335px;" id="elnsmlmjf22x" class="animable"></polygon></g><defs>     <filter id="active" height="200%">         <feMorphology in="SourceAlpha" result="DILATED" operator="dilate" radius="2"></feMorphology>                <feFlood flood-color="#32DFEC" flood-opacity="1" result="PINK"></feFlood>        <feComposite in="PINK" in2="DILATED" operator="in" result="OUTLINE"></feComposite>        <feMerge>            <feMergeNode in="OUTLINE"></feMergeNode>            <feMergeNode in="SourceGraphic"></feMergeNode>        </feMerge>    </filter>    <filter id="hover" height="200%">        <feMorphology in="SourceAlpha" result="DILATED" operator="dilate" radius="2"></feMorphology>                <feFlood flood-color="#ff0000" flood-opacity="0.5" result="PINK"></feFlood>        <feComposite in="PINK" in2="DILATED" operator="in" result="OUTLINE"></feComposite>        <feMerge>            <feMergeNode in="OUTLINE"></feMergeNode>            <feMergeNode in="SourceGraphic"></feMergeNode>        </feMerge>            <feColorMatrix type="matrix" values="0   0   0   0   0                0   1   0   0   0                0   0   0   0   0                0   0   0   1   0 "></feColorMatrix>    </filter></defs></svg>